/* XPM */
static char *result[] = {
/* columns rows colors chars-per-pixel */
"64 64 147 2 ",
"   c #030002",
".  c #0D0304",
"X  c #110206",
"o  c #150B06",
"O  c #150608",
"+  c #1B0C0A",
"@  c #1D120B",
"#  c #000015",
"$  c #080715",
"%  c #0E0916",
"&  c #0E0B18",
"*  c #140D16",
"=  c #180F14",
"-  c #130E19",
";  c #1A1113",
":  c #1E1519",
">  c #2A0400",
",  c #2C0E00",
"<  c #24000D",
"1  c #2D000E",
"2  c #2E1600",
"3  c #23140D",
"4  c #250013",
"5  c #27051A",
"6  c #2B0B1B",
"7  c #340716",
"8  c #390F16",
"9  c #291711",
"0  c #271912",
"q  c #2C1D14",
"w  c #2C1C1B",
"e  c #311F15",
"r  c #351119",
"t  c #361B1D",
"y  c #3D1E1D",
"u  c #2E201E",
"i  c #312017",
"p  c #3B2817",
"a  c #34231A",
"s  c #39251A",
"d  c #3D291D",
"f  c #301C20",
"g  c #332423",
"h  c #3A2521",
"j  c #3C2A24",
"k  c #242533",
"l  c #382E34",
"z  c #401E1B",
"x  c #4C2F05",
"c  c #43241D",
"v  c #422C1E",
"b  c #4C3011",
"n  c #4B311A",
"m  c #51371D",
"M  c #563A1E",
"N  c #5B3D1F",
"B  c #402620",
"V  c #452E20",
"C  c #492C21",
"Z  c #473021",
"A  c #4D3424",
"S  c #503625",
"D  c #533826",
"F  c #583C23",
"G  c #543B28",
"H  c #5A3E2A",
"J  c #4D3A34",
"K  c #5F4026",
"L  c #5D422C",
"P  c #5F4433",
"I  c #644427",
"U  c #6A4626",
"Y  c #62452E",
"T  c #6B4C2C",
"R  c #744D22",
"E  c #745127",
"W  c #7A5126",
"Q  c #7E5429",
"!  c #664730",
"~  c #664931",
"^  c #694A32",
"/  c #704F35",
"(  c #6C5434",
")  c #735137",
"_  c #755338",
"`  c #79563A",
"'  c #7D593D",
"]  c #74603C",
"[  c #584644",
"{  c #47485B",
"}  c #504751",
"|  c #424961",
" . c #535468",
".. c #555D78",
"X. c #865926",
"o. c #8D5E27",
"O. c #865D2B",
"+. c #8E5F29",
"@. c #8E612E",
"#. c #92632C",
"$. c #99662C",
"%. c #966930",
"&. c #996E38",
"*. c #AC732F",
"=. c #AE7836",
"-. c #AD7A38",
";. c #B77B32",
":. c #BB7F35",
">. c #8A784A",
",. c #9F7A44",
"<. c #BB8036",
"1. c #BA8239",
"2. c #C7893B",
"3. c #D4923F",
"4. c #9A8652",
"5. c #A2854E",
"6. c #BE8A44",
"7. c #A18A54",
"8. c #AA985E",
"9. c #BFAC69",
"0. c #C78D40",
"q. c #D59643",
"w. c #D99741",
"e. c #DA9843",
"r. c #D89D4C",
"t. c #C69B54",
"y. c #E6A54D",
"u. c #EAA74D",
"i. c #EAA94F",
"p. c #E1B05F",
"a. c #F1B156",
"s. c #F2B85E",
"d. c #CAAA63",
"f. c #C0AC69",
"g. c #C9B16B",
"h. c #EFB962",
"j. c #D9C377",
"k. c #E6C16F",
"l. c #F6C46B",
"z. c #E5C979",
"x. c #F3C972",
"c. c #F2D07B",
"v. c #576381",
"b. c #5F6B8B",
"n. c #667496",
"m. c #6D7CA2",
"M. c None",
/* pixels */
"m.m.n.v.| k           .   .   .   .     .     .     .   .     .   .   .   .       .   .       .   .   . .           k | v.n.m.m.",
"m.m.n.v.| k       . X X X X X X X X X X X X X X X X X X X X X X X X X X X X X X X X X X X X X X X X X X X X X       k | v.n.m.m.",
"n.n.b...{ l 2 > 2 q e e e e w e e e e e t q e e e q t e q e e e e w e e e e e e e e e e e e e e e w w e e e e , > , l { ..b.n.n.",
"v.v... .} J b x n A n A A A A A A A A C A A A A A A A A A A A C A A A A A A A A A A A A A A A A A A A A n A S n x b J }  ...v.v.",
"| | { } [ P I I Y Y L Y Y ! Y Y ! Y L ! Y ! L I ! L ! L ! P Y Y ! L ! L ! P Y L Y Y Y Y Y Y Y I Y Y Y Y L ! Y Y I Y P [ } { | | ",
"k k l J P ^ ) _ / / / / ^ / / ^ / ^ / / ( ^ ) ) ) ^ / / / ^ / / ^ / / / / / / / / / ^ / / ) ^ ( / ^ / / / ^ / / ) ) / P J l k k ",
"    , b Y ) ' ' ` ` ` ` ` ` ` ` ` ` ` ` ` ` ` _ ` ` ` ` ` ` ` ` ` ` ` ` ` ` ` _ ` _ _ ` ` _ ` ` ` ` ` ` ` ` ` ` ' ' ) I b ,     ",
"    > x I _ ' ' ' ` ` ' ` ` ' ` ' ` ` ' ` ` ' ` ` ' ` ` ' ' ` ` ` ` ' ` ` ` ` ' ' ' ` ' ' ` ' ` ' ' ` ` ' ` ` ' ' ' ) I x >     ",
"    2 n I ) ' ' ' ` ` ` ` ` ` ` ` ` ` ` ` ` ` ` ` ` ` ` ` ' ` ' ` ` ` ' ` ` ` ` ` ` ` ' ` ` ` ` ` ` ` ' ` ' ` ' ' ' _ I n 2     ",
"  . e A ! ) ' ' ` ` ` ` ` ` ` ` ` ` ` ` ` ` ` ` ` ` ` ` _ ` _ _ ` ` ` ` ` ` ` ` ` _ _ ` _ ` ` ` ` ` _ ` _ _ _ ` ` ' ) Y A i .   ",
"  X e A L ^ _ _ / / / / / / / / ) ) ) ( ( ) ) ) / / ) ( ) ( ) ) / ^ / / ( / ( ) / ) ) / ) ) ) ( ) ) ) ( ) ) ) ) _ _ ^ L C e X . ",
"X O q V H ! ^ ^ ~ ~ ! ! ! Y ! Y Y Y Y P Y Y Y Y ! ! L ! ! ! L ! ! ! ! ! Y ! ! Y ! Y ! ! Y Y Y P Y Y Y Y P ! ! ^ ^ ^ ! H v e X . ",
"O + 9 d A G L L L G S S D D A D S D D D G D G S A D S S A D D S S S D S S S D D D D D D S D D D S S S D A G G G H L F D v q O O ",
"+ + 9 s Z S G A Z d d j d d d d d d d d d d d d j d d d d j d d d j d d d d p d d d d d d d d d d d d d d d j n A D D C s 9 + + ",
"+ + 9 s n A D Z d u q 0 q i u i u i i i i q q i i i i u e e e e e e i w u i i u q i q i u i i u i i u i w q i d A S D v s 9 + + ",
"X + 9 v A L L D v i 0 0 i s s s s s a i w 0 q q i a s s s a d a s s s s s p a i w q q q i a s s s s a i 0 0 e V G H F S v 9 + O ",
"X O q v H ^ ~ Y Z p i i s j V V V V v d e w q a c v V v v Z V V V V V v V V V d s i i a d v V C Z Z v d e w s Z L ! ! H A q O X ",
". X e A Y / / Y D d i s n Z A D S D A V d i i d v A S D A A A A A A S S A A A V d a a d V A S D S Z Z V s i d D ! ) ( ! A q X . ",
"  X e D ~ _ _ ^ D d u s V A G D D D S A d d s v v D S D G D D S S S D S G D D V d i s d V S D D D D S Z a e d G ^ _ _ ! D e .   ",
"  X e D ~ _ ` ^ G d i s Z A G G D D S C V d v V A S D S D D D S S D D D D D A C d a a d C A D D G D A Z d i d G ^ _ _ ^ D e X   ",
". X e S ~ _ _ ^ G d q s V A S G D S S A A A V A A S S S S S S S S S D S D D A V d i i d V A G D G D D V s q d G ^ _ _ ~ D e X   ",
"  X e S ~ / _ ! G d i s V S S S S S S A A A A A A S S S S S S S S S S S D D A V d i a d V A D D D D A v d e d G ^ _ / ! A e X . ",
"  X e S ! / _ ~ G d e s V A S S S S D S A D D A S S S S S S S S S S S S D D A V d d d d A A S D D A A V a e d G ~ _ ) ! D e X   ",
". X e S ! _ / ^ G j e s V A A D S S A S D D D D S S S A S S S S S S S S A D A A V v d V C A S S D D A V a i d G ^ / ) ! A q X . ",
"  X e D ! ) ) ^ G d w s V A A D S S S S S S S S S S S S S S S S S S S S S S C S C C A A A A D D D A A V s i d G ^ _ ) ~ S e X . ",
"  X e D ! ) _ ^ G d i s V A G D S S S S S S S S S S S A S S S A S S A S S S S S A S A A A A A D D D A V s i d G ~ _ / ~ S e X   ",
"  X e A ! ) ) ^ D d i s V A A G S S S S S S S S A S S S A S S S S S S S S S S S S S D D D S S A D A A V s u d G ^ / _ ~ A e X . ",
". X e A ! ) ) ^ D d i s V A G S S S A S A S S S S S S S S S S S S S S S S S S S D D A A v z z c B V j d i i d G ~ _ / ~ D e X   ",
"  X e S ! ) ) ^ D j i a v S D D D S S S S S S S S S A S S S A S S S S A S S S D D D A c 8 1 < 4 6 f g w q q d G ^ ) ) ! A e X . ",
"  X e S ! ) ) ^ D d i s Z A S D S S A S S S A S S S S S S S S S S S S S S A S S D D A V c 8 7 r f B h h u q d G ^ _ ) ! A i X   ",
". X e S ! ) ) ^ D d u s d A S S S S S S S S S S S S S S S S S S S A S S S S S A A A D L ^ ( ( ) ^ T I F v s h D ! _ ) ! S e X . ",
"  X e S ! ) _ ^ D d i s Z S S D S S S S A S S S S A S S S A S S S S S S S S S C v v L ] >.4.7.5.,.&.+.W N d a A ! ) ) ! S e X   ",
"  X i Z Y ) ) ^ D d q s V A D S S S S S A S S S S A S S S A S S S S S S S S A c 8 z ^ >.8.9.g.d.t.6.=.$.R n i j ~ ( ) Y F i .   ",
". X i F ! ) ) ^ G j e a V S S S S S S S S S S S S S S S S S S S S S A S S S D z 1 8 ( 4.9.j.z.k.p.r.2.*.X.m ; g P ` ) ~ S i . . ",
"  X i A ! _ _ ^ G d q d V A S D S S A S S S A S S S S S S S S S S S S S D A S z < 7 ( 7.g.z.c.x.h.i.3.;.@.m - g P ) ) Y A e X . ",
"  X i S ! ) ) ^ G d t s V A S D S S S S S S S S S S A S S S A S A S S S S S D y 4 r ( 5.d.k.x.l.s.i.3.<.@.M & g P ) ) ~ D e X   ",
". X e S ! ) _ ^ G d q s V A S D S S S S A S S S S S S S S S S S S A S S A S S c 5 t ^ ,.t.p.s.s.a.i.e.1.#.M & g P / _ ! A i X . ",
"  X i A ! ) _ ! G d u s V A S S S S S S S S S S A S S S A S S S S S S S D A A B w j T &.6.r.i.i.y.y.q.1.@.M - g P _ / ! A e X   ",
"  X i D ! ) _ ! D d i s V A S D S S S A S S S S S S S A S S S A S S A S S S S V g j I @.=.2.3.3.3.w.2.-.@.m : j ! / ) ! S e X   ",
"  X e A ! ) ) ^ G d q s V A S S S S S S S S S S S S S S S S S S S S S S S S S A j Z K Q $.*.;.<.1.1.-.%.E n u j ! ) / ! S e X . ",
". X e A ! ) _ ^ G d w s v A D D S S S S S S D S S S S S S A S S S S S S S S S A V A G ! E X.@.#.#.@.@.E K p a A ! ) ) ! S e X   ",
"  X w S ! _ _ ! G d i s V A A D S S S S S D D S S S S S S S S S A S S S S S S S S S S S F M M N N F m n p a d D ^ ) ) ! S e X . ",
"  X e S ! ) ) ^ G d i a V A D D S S S D S A A S A S S S S S S S S S S A S S S S D D A v t - # # # # $ - ; 0 j H ^ ) ) ! A i X   ",
". X e S ! ) ) ^ G d i s V A D D S S S C A A v C A S A S S S A S S S S S S S S S D D A B w % # # # # # & = 0 v H ^ ) ) ! D t X   ",
"  X i S ! ) ) ^ G d q a V A S D D D A A v v v V A A D D S S S A A S S A S S A S D D A C B j a g h s g u q q d G ^ _ _ ! A i X . ",
". X i A ! _ _ ! G d e d V A S D D A A A d s s d V S D S S S S S S S S S S S S S D A S A A A A A S A Z v s w d G ! _ / ! A i X   ",
"  X i S ! ) _ ! D d e s V A D D D D A V d a i d C A D S S S S S S S A S S A S S A S S S D A D D G S D n a e j G ^ _ ) ! A e X   ",
"  X i A ! ) _ ^ G d w s V A S D D S A V d i i d v S S S S S S S S S S S S S S S D A D S D D D D G G A V d e d S ^ ) ) ! S e X . ",
". X e A ! ) ) ^ D d e d V A A S D S A V d a a d Z A D D S S S S S S S S S S S S A D D D S S S D D D A V s q d G ! _ ) ! S i X . ",
"  X e D ! ) ) ^ G h q d V A S G D D A Z d s a d V A A D S S S S S S S S S S S S D D A D D S S S D A A V d i d G ^ ) ) ! A i X   ",
"  X e A ~ ) _ ~ G d e a V S S D D D S Z d i s d V A D D S S S S S S S S S S S A A A D D A A S D S D A V s q d G ^ _ ) ! S i X   ",
"  X e D ~ _ _ ^ H d i d V S D G D D S Z d s s d A D S S D S D D S S S D S S D A A A Z Z A D D D D D D V d i d G ^ _ _ ! F t X   ",
"  X e D ^ ` ` ^ H v a s C D D D L D S Z d a d d Z S D G D D D D D D D D G D D A V d v Z A D D D D D S V s a d L ^ _ ` ^ A i X   ",
"  X e S ~ _ ` ^ H d a s V D D G D D S Z d a d d A A D G D D D D S D D D G G S n v d d V Z D D H G D D C d e j G ^ ` _ ^ S i .   ",
". X w A Y / ^ ! A p q a v A S S D S n d d a i p B A A A A A C A A C C S A A A v d i q s v Z A A S S C v a q s S ! / ^ Y C e X . ",
"O + q v D Y Y F v i 9 q a c v v v v d p i i q i p v v v v v v v v v v V v v d s q 0 0 q p d d n v v v s q 9 i n G Y Y G v q + O ",
"+ @ 0 p d n m d a 3 @ @ 0 q i i i i e 0 3 @ @ 0 0 e i i e e i i e e i i e e e 9 @ @ @ @ 0 i i e e i q 0 @ @ 3 a v n n v a 0 @ + ",
"3 3 @ 3 0 0 @ @ o . . . o o o o o o o o o . . . o o o o o o o o o + o o o o o o o . . o o o @ o o o o o . . . o @ 3 3 3 3 3 3 3 ",
"3 3 @ .                                                                                                                 X + 3 3 ",
"+ + o                                                                                                                     O + + ",
"O o X     M.M.M.M.M.M.M.M.M.M.M.M.M.M.M.M.M.M.M.M.M.M.M.M.M.M.M.M.M.M.M.M.M.M.M.M.M.M.M.M.M.M.M.M.M.M.M.M.M.M.M.M.M.M.    X o o ",
"        M.M.M.M.M.M.M.M.M.M.M.M.M.M.M.M.M.M.M.M.M.M.M.M.M.M.M.M.M.M.M.M.M.M.M.M.M.M.M.M.M.M.M.M.M.M.M.M.M.M.M.M.M.M.M.M.        ",
"        M.M.M.M.M.M.M.M.M.M.M.M.M.M.M.M.M.M.M.M.M.M.M.M.M.M.M.M.M.M.M.M.M.M.M.M.M.M.M.M.M.M.M.M.M.M.M.M.M.M.M.M.M.M.M.M.        ",
"        M.M.M.M.M.M.M.M.M.M.M.M.M.M.M.M.M.M.M.M.M.M.M.M.M.M.M.M.M.M.M.M.M.M.M.M.M.M.M.M.M.M.M.M.M.M.M.M.M.M.M.M.M.M.M.M.        "
};
