/* XPM */
static char *result[] = {
/* columns rows colors chars-per-pixel */
"64 64 62 1 ",
"  c #000000",
". c #0A0404",
"X c #0F0809",
"o c #110206",
"O c #140B06",
"+ c #150608",
"@ c #150D0B",
"# c #1B0C0A",
"$ c #1A100C",
"% c #2A0400",
"& c #2C0E00",
"* c #2E1600",
"= c #23160D",
"- c #26180E",
"; c #28180E",
": c #241712",
"> c #291711",
", c #271912",
"< c #2B1B14",
"1 c #311F15",
"2 c #312017",
"3 c #342219",
"4 c #3A261B",
"5 c #3D2A1D",
"6 c #242533",
"7 c #382E34",
"8 c #4C2F05",
"9 c #432C1E",
"0 c #4C3011",
"q c #47311F",
"w c #4C311A",
"e c #462F20",
"r c #473121",
"t c #4C3323",
"y c #503625",
"u c #523926",
"i c #543A28",
"p c #5A3E2A",
"a c #4D3A34",
"s c #5E412C",
"d c #5F4535",
"f c #644427",
"g c #62452E",
"h c #654730",
"j c #674831",
"k c #694B32",
"l c #704F35",
"z c #735137",
"x c #755338",
"c c #79563A",
"v c #7D593D",
"b c #584644",
"n c #47485B",
"m c #504751",
"M c #424961",
"N c #535468",
"B c #555D78",
"V c #576381",
"C c #5F6B8B",
"Z c #667496",
"A c #6D7CA2",
"S c None",
/* pixels */
"AAZVM6    . ..... ...... .. .... .... ..... ........ .    6MVZAA",
"AAZVM6   oooooo..X.oooooooooooooooooXXoXooooooooooX.o++   6MVZAA",
"ZZCBn7*%*1111111<222<11111111111111111111111<1111211111&%&7nBCZZ",
"VVBNma08wtttttttttttttttttttyryrtttttttrtttttttttttettyw80amNBVV",
"MMnmbdffshshhhhpshshsgghhddshsshshsddhphggghggddddshshsgffdbmnMM",
"667ahkzzllllkllllllllllllllllllllllllllzllklkzklllllllllzxkda766",
"  &0gzvvccccccccccccccccxcxccccccccxxcxxcccccccccccccccvvczf0&  ",
"  %8fzvvccvccccccvccccccvccvcccvccvvcvcvccccvcvccccccccvvvxf8%  ",
"  *wgzvvvcccccccccccccccccccccccvccccccccccccccccccccvcvvvxfw*  ",
" o1tgzvvcccccccccccccccccxccccxxccccccccccccccccccccxcxcvvlgt1o ",
".o1rskxxzllllllllllkllllzlllzzllllllllllzllzlllllzllzzzzzckgq1+.",
"o+19pjkkkjhhhhhhhhhshhhhhhhhhhdshhhhhhjghhhhhhhkhhdhhhhjkkjp91+.",
"++<9yidsiiuuttiisstssssssstssstsiiaiiiauiiiiiiiiiiiiiiipsspt9>#+",
"##>3ryttr555555557553535555355555e5e59e55555e555555555eryyyq1>##",
"+=>4ryut53<<231<<<,,:,<<,,<,<<,<,,,<><<,<<,<,,<<<,<,::14tyyq4>##",
"++>9ypsi52,<2332,$$@$$$$$$$$$$$$$$$$$$$$$$$$$$$$$$$@.o>9yppy9>#+",
"o+<qpjjsy113eee3<#..XXOOOOOOOX@@OOOOOOOOXOOOOXOO@XX   ,qshjsq<Oo",
".+1ygllji114ett41#   ..............................   -rgllht2o.",
" o1yjxxkie24tyye1O                                    -qhxxjy1o.",
" o1ujxcka524eyye1o                                    -tjxxjy1o ",
".o1yjxxji524tyt91O                                    -qhxxhy1o.",
" o1yjllki524eyt91O                                    -thzxku1o.",
".o1yjlxki514ttte1O                                    -rhlzhy1o ",
" o1yjxlki514eyte1O                                    -rhzzhy1o.",
".o1thxxki515eyte1O                                    -thzzkt1o.",
".o1yhzlki513tyte1O                                    -rhzzki1o.",
".o1thzzka515eyte2O                                    -rhzzhy1o ",
".o2yhzzki513ttte2O                                    -thzzjy1o.",
" o1yhzzki514rare2O                                    -rhzzjy1o.",
".o1yhzzki514rtr91O                                    =rhzzjy1o.",
" o1yhzzki414ryye1O                                    -rhlzja1o ",
".o1yhzzki515ryye1O                                    -thzzhy1o.",
".o1yjzzki514tyt92O                                    -thxxhy2..",
".o1yjzzji424ttt92O                                    -rsxxhy1+ ",
".o1yjzxji414ette2O                                    -qhlxhy1o.",
" o1tjzxja514tyt91O                                    -thxxhy1o ",
".o1yjzzjie14tyte1O                                    -qhzzhy1o.",
" o1yjzxji414eyye1O                                    -rhzzky1o.",
".o1yjzxka413eyt92O                                    -thlzji1o.",
" o1yjzzjp434tyt92O                                    -rhzzkt<o.",
".o1yhzzku514ryye2O                                    -thzzjy1o.",
".o1thzzki514ryr91O                                    -rhzzjy1o.",
".X<ihzxki514rtye1O                                    -rhzzjt1o.",
".X<thzzka514rat91O                                    -thzzjy1o.",
".o1yhzzki514ryt92O                                    -rhzzjy1o.",
".o1tklzki514rut92O                                    =rhzzjy1o.",
" o1yjzzki514tttq2O                                    -rhzzja1o ",
".o1yjzzki524eiwq1O                                    -thzlhy1o.",
".o1ajlzki515ryte1O                                    -thxxhy2o ",
" o1thzzki514ryte2O                                    -rsxxhy2o.",
".o1yhzcji414tyte2O                                    -qhxxhy1o.",
" o1yjczkie15ette2O                                    -thxxhy1o ",
" o1ikcckie34tyye2O                                    -yjccki1o ",
".o1yjzcki535tyye2O                                    -wjzcji1o ",
".o<thllha413ette<O                                    =qgkkht1oo",
"o$<eissie1>13e41-O                                    $5iggi9<#+",
"##>29qq91-$=;21;$.                                    O<99r93-##",
"=====-=$OX..OOOO.                                      O#=---==:",
"==#+                                                        o#==",
"##O               .                                 ..       +=+",
"++.  SSSSSSSSSSSSSSSSSSSSSSSSSSSSSSSSSSSSSSSSSSSSSSSSSSSSSS  +Oo",
" .  SSSSSSSSSSSSSSSSSSSSSSSSSSSSSSSSSSSSSSSSSSSSSSSSSSSSSSSS  . ",
"    SSSSSSSSSSSSSSSSSSSSSSSSSSSSSSSSSSSSSSSSSSSSSSSSSSSSSSSS    ",
"    SSSSSSSSSSSSSSSSSSSSSSSSSSSSSSSSSSSSSSSSSSSSSSSSSSSSSSSS    "
};
