/* XPM */
static char *result[] = {
/* columns rows colors chars-per-pixel */
"64 64 231 2 ",
"   c black",
".  c #0D0B0C",
"X  c #3B0000",
"o  c #0F122C",
"O  c #1A1A2B",
"+  c #191926",
"@  c #070439",
"#  c #0E1836",
"$  c #121232",
"%  c #181836",
"&  c #121239",
"*  c #111938",
"=  c #0D0D2C",
"-  c #062331",
";  c #2B2B2C",
":  c #2B2B35",
">  c #513421",
",  c #5C3D27",
"<  c #4E342F",
"1  c #61362D",
"2  c #68462D",
"3  c #765235",
"4  c #060046",
"5  c #05004A",
"6  c #0B004D",
"7  c #0D0D4C",
"8  c #0C0844",
"9  c #111343",
"0  c #14184A",
"q  c #0C0154",
"w  c #0D0A51",
"e  c #0C0459",
"r  c #120455",
"t  c #131554",
"y  c #161957",
"u  c #0F0F4B",
"i  c #172748",
"p  c #192759",
"a  c #242F57",
"s  c #242F4E",
"d  c #140868",
"f  c #241873",
"g  c #1F2A6B",
"h  c #1D2566",
"j  c #1E2D6C",
"k  c #212769",
"l  c #23336C",
"z  c #253867",
"x  c #222C72",
"c  c #212171",
"v  c #223572",
"b  c #223972",
"n  c #2E3F7A",
"m  c #293877",
"M  c #333366",
"N  c #541379",
"B  c #6E0069",
"V  c #6D0C6C",
"C  c #682874",
"Z  c #1E4244",
"A  c #015254",
"S  c #0C4756",
"D  c #2C5859",
"F  c #264F52",
"G  c #005B61",
"H  c #2B457A",
"J  c #31447D",
"K  c #234B6C",
"L  c #0F6972",
"P  c #3C7276",
"I  c #356A6E",
"U  c #31605F",
"Y  c #595F5F",
"T  c #72517D",
"R  c #427A7D",
"E  c #5F447F",
"W  c #A20C32",
"Q  c #A3001B",
"!  c #8E0049",
"~  c #8E0C4F",
"^  c #983E58",
"/  c #A32F46",
"(  c #852A61",
")  c #915471",
"_  c #8A7275",
"`  c #161484",
"'  c #130784",
"]  c #220783",
"[  c #271784",
"{  c #142F8A",
"}  c #292987",
"|  c #2C3C82",
" . c #2C3888",
".. c #333B85",
"X. c #392784",
"o. c #422882",
"O. c #423383",
"+. c #164289",
"@. c #2B4387",
"#. c #33458C",
"$. c #334B8C",
"%. c #394A8E",
"&. c #324784",
"*. c #34548D",
"=. c #325C8D",
"-. c #38528D",
";. c #364C92",
":. c #384D95",
">. c #275593",
",. c #395294",
"<. c #3D539B",
"1. c #3D5C9C",
"2. c #375A93",
"3. c #285087",
"4. c #36628E",
"5. c #3A6699",
"6. c #356A9E",
"7. c #3D72A1",
"8. c #3D7AA6",
"9. c #1D7C82",
"0. c #405599",
"q. c #405C9F",
"w. c #425596",
"e. c #474B88",
"r. c #436A99",
"t. c #45749B",
"y. c #4A7C9D",
"u. c #48799B",
"i. c #497A85",
"p. c #787898",
"a. c #6D6E92",
"s. c #415CA3",
"d. c #4058AA",
"f. c #4264A4",
"g. c #436AA6",
"h. c #4464AA",
"j. c #446CAA",
"k. c #4176A3",
"l. c #427AA4",
"z. c #4474AB",
"x. c #457BAC",
"c. c #4B7CAB",
"v. c #4574B2",
"b. c #4A77B2",
"n. c #457BB2",
"m. c #497BB2",
"M. c #4C6DAD",
"N. c #323BFF",
"B. c #384CFF",
"V. c #415EFF",
"C. c #4162FF",
"Z. c #446CFF",
"A. c #4674FF",
"S. c #4678FF",
"D. c #8D7183",
"F. c #3B8893",
"G. c #3B878D",
"H. c #3B82A7",
"J. c #3B85B7",
"K. c #4B898E",
"L. c #498896",
"P. c #489497",
"I. c #529498",
"U. c #58888D",
"Y. c #6E949C",
"T. c #4C82A2",
"R. c #4682AF",
"E. c #4B85AD",
"W. c #558AAA",
"Q. c #5695AB",
"!. c #5A9BAE",
"~. c #5697A6",
"^. c #4584B3",
"/. c #4A85B3",
"(. c #428BB6",
"). c #4C8BB5",
"_. c #4E8EB9",
"`. c #548AB2",
"'. c #4F92B6",
"]. c #4F91B9",
"[. c #5294B6",
"{. c #559BB5",
"}. c #5194B8",
"|. c #579EB8",
" X c #589EBB",
".X c #599CB4",
"XX c #6E95A6",
"oX c #5CA5AA",
"OX c #4BADB4",
"+X c #5CA3B5",
"@X c #5EAAB3",
"#X c #5AA2BA",
"$X c #5EA9BA",
"%X c #55A7B7",
"&X c #5CB2B6",
"*X c #5DB4BB",
"=X c #53B1B7",
"-X c #61ACB4",
";X c #61ADBA",
":X c #6CADB5",
">X c #64B1B5",
",X c #65B4BA",
"<X c #68B7BD",
"1X c #69B9BE",
"2X c #66B8BD",
"3X c #75B7BD",
"4X c #6AA6AF",
"5X c #6ABBC2",
"6X c #64B1C1",
"7X c #7BBAC0",
"8X c #5FB9C0",
"9X c #4AFFFF",
"0X c #47FFFF",
"qX c #52FFFF",
"wX c #5CFFFF",
"eX c #60FFFF",
"rX c #818181",
"tX c #818199",
"yX c #A19493",
"uX c #808AB2",
"iX c #91B0B2",
"pX c #AEA9A8",
"aX c #80BCC2",
"sX c #80A3FF",
"dX c #AED0D4",
"fX c #8EC3C8",
"gX c #D3D5D5",
"hX c #F8F8F8",
"jX c #E2F0F1",
"kX c #CDE6E9",
"lX c None",
/* pixels */
"3 3 3 3 3 3 3 3 3 3 3 3 3 3 3 3 3 3 3 3 3 3 3 3 3 3 3 3 3 3 3 3 3 3 3 3 3 3 3 3 3 3 3 3 3 3 3 2 , > > , 2 3 3 3 3 3 3 3 3 3 3 3 ",
"3 3 3 3 3 3 3 3 3 3 3 3 3 3 3 3 3 3 3 3 3 3 3 3 3 3 3 3 3 3 3 3 3 3 3 3 3 3 3 3 3 3 3 3 3 3 3 2 , > > , 2 3 3 3 3 3 3 3 3 3 3 3 ",
"3 3 3 3 3 3 3 3 3 3 3 3 3 3 3 3 3 3 3 3 3 3 3 3 3 3 3 3 3 3 3 3 3 3 3 3 3 3 3 3 3 3 3 3 3 3 3 2 , > > , 2 3 3 3 3 3 3 3 3 3 3 3 ",
"3 3 3 3 3 3 3 3 3 3 3 3 3 3 3 3 3 3 3 3 3 3 3 3 3 3 3 3 3 3 3 3 3 3 3 3 3 3 3 3 3 3 3 3 3 3 3 2 , > > , 2 3 3 3 3 3 3 3 3 3 3 3 ",
"3 3 3 3 3 3 3 3 3 3 3 3 3 3 3 3 3 3 3 3 3 3 3 3 3 3 3 3 3 3 3 3 3 3 3 3 3 3 3 3 3 3 3 3 3 3 3 2 , > > , 2 3 3 3 3 3 3 3 3 3 3 3 ",
"3 3 3 3 3 3 3 3 3 3 3 3 3 3 3 3 3 3 3 3 3 3 3 3 3 3 3 3 3 3 3 3 3 3 3 3 3 3 3 3 3 3 3 3 3 3 3 2 , > > , 2 3 3 3 3 3 3 3 3 3 3 3 ",
"3 3 3 3 3 3 3 3 3 3 3 3 3 3 3 3 3 3 3 3 3 3 3 3 3 3 3 3 3 3 3 3 3 3 3 3 3 3 3 3 3 3 3 3 3 3 3 2 , > > , 2 3 3 3 3 3 3 3 3 3 3 3 ",
"2 2 2 2 2 2 2 2 2 2 2 2 2 2 3 3 3 3 3 3 3 3 3 3 3 3 3 3 3 3 3 3 3 3 3 3 3 3 3 3 3 3 3 3 3 2 2 2 , > > , 2 2 2 2 2 2 2 2 2 2 2 2 ",
", , , , , , , , , , , , , , 2 3 3 3 3 3 3 3 3 , , 3 3 3 3 3 3 3 3 3 3 3 3 3 3 3 3 3 3 3 2 , , , , > > , , , , , , , , , , , , , ",
"> > > > > > > > > > > > > > , 3 3 3 3 3 3 3 , > > , 3 3 3 3 3 3 3 3 3 3 3 3 3 3 3 3 3 2 , > > > > > > > > > > > > > > > > > > > ",
"> > > > > > > > > > > > > > , 3 3 3 3 3 3 3 , > > , 3 3 3 3 3 3 3 3 3 3 3 3 3 3 3 3 3 2 , > > > > > > > > > > > > > > > > > > > ",
", , , , , , , , , , , , , , 2 3 3 3 3 3 3 3 3 , , 3 3 3 3 3 3 3 3 3 3 3 3 3 3 3 3 3 3 3 2 , , , , , , , , , , , , , , , , , , , ",
"2 2 2 2 2 2 2 2 2 2 2 2 2 2 3 3 3 3 3 3 3 3 3 3 3 3 3 3 3 3 3 3 3 3 3 3 3 3 3 3 3 3 3 3 3 2 2 2 2 2 2 2 2 2 2 2 2 2 2 2 2 2 2 2 ",
"3 3 3 3 3 3 3 3 3 3 3 3 3 3 3 3 3 3 3 3 3 3 3 3 3 3 3 3 3 3 3 3 3 3 3 3 3 3 3 3 3 3 3 3 3 3 3 3 3 3 3 3 3 3 3 3 3 3 3 3 3 3 3 3 ",
"3 3 3 3 3 3 3 3 3 3 3 3 3 3 3 3 3 3 3 3 3 3 3 3 3 3 3 3 3 3 3 3 3 3 3 3 3 3 3 3 3 3 3 3 3 3 3 3 3 3 3 3 3 3 3 3 3 3 3 3 3 3 3 3 ",
"3 3 3 3 3 3 3 3 3 3 3 3 3 3 3 3 3 lXlXlXlXlXlXlXlXlXlXlXlXlXlXlXlXlXlXlXlXlXlXlXlXlXlXlXlXlXlXlX3 3 3 3 3 3 3 3 3 3 3 3 3 3 3 3 ",
"3 3 3 3 3 3 3 3 3 3 3 3 3 3 3 3 lXr w 6 6 5 4 4 4 4 4 4 4 4 4 4 4 4 4 4 4 5 4 5 4 4 5 5 6 4 4 lXlX3 3 3 3 3 3 3 3 3 3 3 3 3 3 3 ",
"3 3 3 3 3 3 3 3 3 3 3 3 3 3 3 3 y t y d e e q e q q q q q q q q q q q q q q q q e q e e 6 r r 6 lX3 3 3 3 3 3 3 3 3 3 3 3 3 3 3 ",
"3 3 3 3 3 3 3 3 3 3 3 3 3 3 3 lXh h x v b l l b v b v l v v v v v v v v v v l v l l v b m b K z lX3 3 3 3 3 3 3 3 3 3 3 3 3 3 3 ",
"3 3 3 3 3 3 3 3 3 3 3 3 3 lXlXk x m ..$.*.=.=.4.=.=.=.=.=.=.=.=.=.=.=.=.=.=.=.=.=.=.=.=.5.4.3.H H lX3 3 3 3 3 3 3 3 3 3 3 3 3 3 ",
"3 3 3 3 3 3 3 3 3 3 3 3 lX5 y g m ..,.q.6.t.k.k.k.7.7.7.7.7.7.7.7.7.7.6.7.7.7.7.7.7.7.7.v.8.5.4.H p @ 3 3 3 3 3 3 3 3 3 3 3 3 3 ",
"3 3 3 3 3 3 3 3 3 3 3 lX5 w c x ..B.q.j.x.R././.R.^.R.R.R.R.R.^.R.R.R.R.x.^.R.R.R.R.^./.^.m.S.5.H h 5 @ 3 3 3 3 3 3 3 3 3 3 3 3 ",
"3 3 3 3 3 3 3 3 3 3 3 lXy c m #.,.s.Z.A.0X).].].].].}.].[.].].].'.].'.].}.[.}.}.}.}.}.qXqXqX).R.6.H f q lX3 3 3 3 3 3 3 3 3 3 3 ",
"3 3 3 3 3 3 3 3 3 lXlXh k m $.<.1.j.S.p.0X_.].{.{. X X#X X X X X#X X X#X X X X X X X XqX7XwX{.`.u.*.f d d lX3 3 3 3 3 3 3 3 3 3 ",
"3 3 3 3 3 3 3 3 lXy h x n ..,.1.z.x.0X0X0X)._.[.#X$X$X$X$X$X$X#X$X$X$X$X$X$X$X$X-X;X$X;XwXwX X`.c.:.} f f h p 3 3 3 3 3 3 3 3 3 ",
"3 3 3 3 3 3 3 lXw t h m ..B.s.j.m./.).)./.^.).[.+X$X,X,X>X>X>X,X>X;X,X>X;X;X,X;X>X>X;X,X,X,X-X!.c.s.N.} c h t w 3 3 3 3 3 3 3 3 ",
"3 3 3 3 3 3 3 lXr y x ..%.q.C.Z.0X)._._.)._.[.+X$X,X,X,X2X,X,X,X,X,X,X,X,X,X,X,X,X,X,X1X<X,X,XeXqXA.s.:.@.j y q 3 3 3 3 3 3 3 3 ",
"2 2 2 2 2 2 2 lX6 w v $.q.M.A.XX0X/._.[.'.{..X+X>X,X,X,X&X&X=X&X2X,X1X1X<X,X,X,X>X1X,X<X1X1X,XeXuXqXE.5.*.v e 4 3 3 3 3 3 2 2 2 ",
", , , , , , , lX6 r v *.5.x.0X0X0X).).[..X+X$X>X>X,X,X&X=XOXOX=X*X5X1X1X<X<X,X,X,X,X,X<X1X5X1X,XeXeXQ.T.4.z 4 @ 3 3 3 3 2 , , , ",
"> > > > > > > lX6 e v =.7.R.).).).)._.{.+X$X>X,X,X,X>X&X=XOX=X@X*X<X1X2X,X,X,X,X>X,X,X,X<X<X<X,X1X,XoX~.r.K 4 @ 3 3 3 2 , > > > ",
"> > > > > > > lX5 q v 4.8.).]._.).)._.{.$X,X,X,X,X>X,X3X3XaXaX3X:X-X@X@X>X,X,X,X,X,X,X,X-X-X-X>X<X<X-X!.u.H e e 3 3 3 2 , > > > ",
", , , , , , , lX@ q v =.u.E.]._././._.{.+X2X2X,X&X&X3XfXdXdXdXdXiXY.P.P.oX>X,X,X,X,X>XoX~.I.I.oX>X<X,X!.L.*.f d d 3 3 3 2 , , , ",
"2 2 2 2 2 2 2 lX@ 4 l =.u.^._._./.^.).[.$X>X2X&X=X=X7XdXkXjXjXgXiXU.L L I.>X2X5X5X,X-X~.K.P P K.oX1X,XoXT.w.@.c c h y 3 3 2 2 2 ",
"3 3 3 3 3 3 3 lX@ 5 j =.7.E._._.(.).).{.+X>X,X&XOX=X7XdXjXhXhXgXpXY - A F.>X2X5X5X<X-XI.I Z Z P I.,X;X-XW.f.7.m x c t r lX3 3 3 ",
"3 3 3 3 3 3 3 lXq y b 4.8./._.]._._.'..X$X>X,X&XOXOXiXdXjXhXhXgXyX<   S G.@X2X5X5X<X-XK.D     D I.-X<XeXqXA.<.;. .x y 7 lX3 3 3 ",
"3 3 3 3 3 lXlXh c m $.5.k.E.'.}.[.[.#X$X$X>X,X,X=X=X3XdXgXgXgXpX_ X   S G.@X1X5X5X<X-XK.F     D K.-X6XeXuXA.7.<.;.v w q lX3 3 3 ",
"3 3 3 3 lXt h v | ..,.g.x./.'.}. X+X$X;X,X<X1X1X8X8X5XiXiXpXyX_ 1 .   A K.@X<X5X5X1X@XK.F     D I.>X5X6XqX9Xz.5.$.b r 6 lX3 3 3 ",
"3 3 3 lXw t g m #.B.r.j.x.^.'.{.+X;X,X,X,X,X<X1X5X5X>XoXU.Y < X .   o U P.-X1X5X5X1X-XK.D     U I.>X<X6X;X_.x.7.*.l q 5 lX3 3 3 ",
"3 3 3 lXw y x ..;.0.V.Z.S.^.'..X-X>X,X,X,X-X-X;X,X>XoXK.L -       . D R I.-X1X5X5X1X&XI.P Z s I U.oX,X;X X}./.7.=.b e 4 lX3 3 3 ",
"3 3 3 lXw t x ..;.0.V.uXS.^.'.{.;X,X,X>X.X~.Q.~.[.!.~.F.L A A A G I R I.oX>X2X5X1X2X>XoXK.R P i.K.~.[.[.}._./.k.4.b e 5 lX3 3 3 ",
"3 3 3 lXw y c  .%.0.C.Z.S./.'.#X;X,X>XoXW.y.r.r.g.u.u.L.F.F.P.P.I.I.oXoX-X,X1X1X1X1X1X>XoXoXI.L.u.t.7.x./.'.).l.=.b q 4 lX3 3 3 ",
"3 3 3 lXw y g | #.<.h.j.x./.'. X;X,X-X!.L.,. .}  .#.5.y.Q.+X>X,X:X>X>X>X,X<X<X<X<X<X1X,X,X,XoX~.t.*.#.1.x.)./.l.4.b q 4 lX3 3 3 ",
"3 3 3 lXw y g | #.<.f.M.m.^.'.#X;X,X,X!.y.2. .] ] ] #.7.Q.@X2X6X,X,X>X>X-X-X-X-X-X-X-X>X,X,X-XQ.u.*.#.1.x.)./.l.4.b q 4 lX3 3 3 ",
"3 3 3 lXw t g | #.<.f.j.n./.[.#X;X,X,X+XQ.y.5.;.} ] } 4.E.Q.%X%X%X{.+X!.{.Q.Q.Q.Q.Q.~.!..X.X!.W.y.u.u.l.E.]./.l.=.b q 5 lX3 3 3 ",
"3 3 3 lXw t k | #.0.h.z.n./.[.#X-X,X,X>X-X!.W.t.%.} ]  .6.H.H.H.H.8.l.l.l.y.y.y.y.y.u.k.t.t.y.T.W.~.~.!.{.]./.k.4.b q 5 lX3 3 3 ",
"3 3 3 lXw t g | #.<.f.j.n.).}..X;X>X1X,X,X-XoXW.r.#.[ } +.>.>.>.>.>.>.>.*.*.,.,.,.*.-.$. . .-.c.~.-X;X;X X}./.k.=.l q 5 lX3 3 3 ",
"3 3 lXlXw y g | #.<.f.g.x./.).[.+X;X,X2X1X1X>X!.T.r.%...X.O.X.N X.o.o.X.X.X.} } } } } } }  .2.L.!.;X,X6X X}.R.6.*.v e 6 lX3 3 3 ",
"3 lXlXlXw t k | %.<.h.j.j.z./.'.{.+X;X,X1X1X,X-X!.T.t.e.E C B B B B V N o.[ ` ` ] ] } #.,.r.y.W.+X;X;X#X{./.k.5.3.j w 5 lXlX3 3 ",
"lXlXlXu 6 p g @.:.1.V.C.C.g.z.E.'.[.#X$X,X,X,X,X=XoXQ.a.) ( ! ! ! ! ~ V N X.{ ' ' f ..r.y.W.!..X+X#X X[./.c.f.,.&.g w 6 8 lXlX3 ",
"lXlXy 9 7 p g @.:.1.s.V.s.q.g.z.c.).[.$X;X,X2X2X*X&X4XY._ ) W Q W ~ / ( C ..{ { ' [ $.t.~.-X>X;X#X[.)./.b.h.<.$.n j t 7 9 : lXlX",
"lX; * 9 9 y M m $.,.q.0.<.s.q.f.z.n.).[.#X;X,X2X*X5X:XtXD.) / W / / ( ( e.e.>.+. . .2.T.!.>X,X;X.X_.n.z.g.s.<.#.m h y 7 9 * rXlX",
"o # * * 9 t p m n #.,.<.<.0.s.h.g.z.R.).{.+X$X$X8X,X:X4XD.D.) ) ) ) ) a.a.a.6.>.>.6.7.E..X$X;X$X'.n.z.g.V.s.<.#.| g p 7 9 * * ; ",
"+ % % # & 9 p p j b @.-.<.s.d.h.h.h.A.0X0X{.#X#X#X%X.XXXXXp.p.p.D.D.XXp.c.c.b.l.n.x.x.).[. X X[.E.z.f.s.V.V.<.:.@.j ` u 9 * lXlX",
"lXrX; rXlXo * y p z m $.:.d.s.h.s.s.f.A./._.].].].].[._.`.`.`.`.`.`.m._.`././.)./.(.)._.}.}.).E.z.f.s.s.V.s.1.-.@.j d 7 9 * lXlX",
"; ; lXlXlXlX= @ @ 7 M K e.w.s.f.0.B.s.g.z./.)./.^./.^.(.^.(.(.(.(.(._._._./.).).).).).).)./.^.z.g.s.<.0.<.s.,.$.m H t u 9 9 lXlX",
"# - % lXlXlXlX= @ 4 t g n %.w.w.<.0.d.j.j.x.m.m.m.m.n.n.n.J.J.J.J.J.J.n.^././.`././.m./.^.n.b.j.g.s.s.<.<.,.#.J x p t 8 & & rXlX",
"$ $ $ & lXlXlX* @ @ 0 p z H &.-.,.s.h.M.M.v.b.M.M.v.v.v.v.v.v.n.n.v.v.v.v.b.b.b.b.b.b.b.v.v.v.M.h.h.s.<.$.@.m l h p 9 & & * + + ",
"% % O o ; rXrX% # $ * % % * z -.w.w.h.h.h.d.h.h.g.h.h.h.h.7.h.f.d.7.h.h.g.h.h.h.h.h.h.g.h.h.h.h.h.d.s.,.@.v z y t * o ; o % O + ",
"lXlXlXlXlXlXrXlXlXlXlXlXlXlX* J -.w.5.tXs.0.0.w.w.<.<.0.<.<.w.<.d.<.w.w.0.0.<.0.w.w.w.w.0.0.0.0.d.s.,.;.| M 8 8 @ = lXlXlXlXlXlX",
"3 lXlXlXlXlX+ rXlXlXlXlXlXlXlXz &.-.,.%.:.%.%.%.;.%.%.%.%.%.%.%.:.;.;.;.%.%.%.%.%.%.%.%.%.%.%.:.,.,.*.H l t 4 @ = Y.lXlXlXlXlXlX",
"3 3 lXlXlXlXo o rXlXlXlXlXlXrXa z J J J J J n n n n n n n n J n n J n n n n n J n n J n n n n &.J J J z p y & @ & o lXlXlXlXlX3 ",
"3 3 3 lXlXlXO $ # rXrXlXlXlX; i i p s a a a a a a a a a a a a a a a a a a a a a a a a a a a a a a a s i i * $ $ # % lXlXlX3 3 3 ",
"3 3 3 3 lXlX% $ + ; rXrXrXrXlXlXlXlXlXlXlXlXlXlXlXlXlXlXlXlXlXlXlXlXlXlXlXlXlXlXlXlXlXlXlXlXlXlXlXlXlXlXlXlXlXrXO O lXlXlX3 3 3 ",
"3 3 3 3 3 lX% $ o ; rXrX; ; lXlXlXlXlXlXlXlXlXlXlXlXlXlXlXlXlXlXlXlXlXlXlXlXlXlXlXlXlXlXlXlXlXlXlXlXlXlXlXlXlXlX+ O lXlX3 3 3 3 "
};
