/* XPM */
static char *result[] = {
/* columns rows colors chars-per-pixel */
"64 64 38 1 ",
"  c #2C3444",
". c #2F3748",
"X c #2F3848",
"o c #323B4D",
"O c #343E50",
"+ c #364053",
"@ c #3A4356",
"# c #3C465A",
"$ c #3E485D",
"% c #3F4A60",
"& c #404B5F",
"* c #414D63",
"= c #445066",
"- c #465269",
"; c #4A566D",
": c #4C586F",
"> c #495671",
", c #4D5A73",
"< c #4F5D78",
"1 c #505D75",
"2 c #515F7A",
"3 c #53617C",
"4 c #566583",
"5 c #586785",
"6 c #5A6887",
"7 c #5C6B8A",
"8 c #606E8B",
"9 c #62718E",
"0 c #606F90",
"q c #647493",
"w c #687795",
"e c #697897",
"r c #677798",
"t c #6C7C9C",
"y c #6F7FA0",
"u c #6F80A0",
"i c #7181A2",
"p c #7586A8",
/* pixels */
"==*#+X                         O&**&O                           ",
"==*$+o   XXXXX........  ..o   .+&**&@o      ..  ..... ..... ....",
"==**$$###@&#&&&@&##&&&#&&&&@&&&&&===&&&@&&&&&&&&@&&&&&&&&&@&@&&@",
"**--::111311:11111111111111111:;-=*-;:1111,11111111111:11111111:",
"%*-13889988898888888888888888881:-=:3888989808888888888888888888",
"%%;38wtutttttttttttttttttetytyw81==18qtttttttttttttttytttttyetee",
"%%;39uipiiiuiiuuyyyyyyyyyyyipiy93==3qtpipyyyyyyyyyyyyyyyyyyyiiyi",
"$%;5wuppittttttttytttytyttyippiq3-=3qippytytttttttttytyttyyyiipp",
"&&;8wypiterqrrrrrqqqrqrqqeetipyw3;=3eipiyewwqrrqqqrqqrrqwwrtyypp",
"&&;3wyiye977777777800777770eyit83;=39yiyw888700707800708880qeyyy",
"&#-38wew85424444444444444458wtw81&=38ete852244444444444424489wyy",
"@@&;188521>>>>><<22<<>>>->133883;&&=33832,>>>>>,<<2<>>>;;;,24888",
".oO#=;;-**####%=;>>;=*&##%%*;;;*@oo&&;;==*&O*&&*>>>>**@#@&&==;;:",
".oooO@O@OOOooOO#*=-*#OoooOOO+@OOooXX&o&oOOOOooO&*==*&OOoOOOOO@@@",
"#@##@O@O@@@@@@#%****#@@@@@@O@++@&&&&o&o@O&O@OO&&****&@@@@@@@@@O@",
"111,1>:::11,,>>-****;>,,,,,1:::::1;:::::,,1,,,:-****;:,,::::;:;:",
"8888888878888863:==:3389778878888888887888888882;*=>188888888888",
"tttttteetttttte81==18wtutytttttttttttttttteyyew8<==18weyyettette",
"uuuuiyiiyyyipit93==38uipiyyyuuuyyyyyyyyyuuyiiiy82-=28ypiiiyiuuuu",
"ttttettttttyppu93=-3wuppyryyttttttttttttteyyppyq2--2qyppitettttt",
"qqqqqqqqq0rtiiyq3==39ipiyq0qqq0qqqqq0r0qqqqeyyyq2;-3wyiitqq0q9qq",
"77778777767rtitq3==39uitq076777777777777868eyyy02--29tytq0768778",
"66666655466qeye83==38ete07446666555666665578ryr02--28eyt07465655",
"666666556660ree83==138w976666666675666665570rew01;=18wew07566665",
"7676777767700r051==;133577777777776777777770qq042--,60r007777777",
"77777777777700741=**=-,3377777776777777777770064>-=,470077776777",
"4444445544444422:*&&$$&;<4556455544646445444444<;**;,44444444444",
"44<4<,,,<<><<,>=*&@+Oo+&-,,1,,,22422<<>>,,,>,,>-*#@*=>,><,<,<<><",
">>>;=%&#%%*%#%&@++oXXXX@@#**#&**;>,:=%%%&&&&#*&@OOoO&&&*%&&&%%%%",
"--=*#OoooOOOOOo.oXXXXoXXOOOoooO@*-=*#OOOooOOOOo.ooooooooOOOoOoOO",
"***%##@@@@@@@@#&#@&@&&@&@#@+@@#&***&##+@&@@@O&@&&@@#&O@@O@@@@@@@",
"*%*-;>>1>,,,,>1,11111:1:,,,1,>:;****;>>,,,,,:,,,,11,,:,,111,,,>>",
"&&=13388888788768888888788889963:**:3788700798888888788878888878",
"&&;39wttttttttttttttttttttttttq81-=18qttryttttttttettttttttteeee",
"&&;3wuipiuyyiyyyuuyiiyyyuuuipit93-=39tppuyyyuuuuuuuuyyyyuyyiiuii",
"#&:3wuppitttttyytttttttyettuppu93=-39upiyyryttttttttttttttttuipp",
"$&;3quputrqqqqqqqqqqqqq0w9qtyiyq3-=3wuiiyq0qqqq0w9qqqqqq0qqttipi",
"$$;6qtutq865777087777777678qtyyq3-=39titr776777778777777778qeiii",
"$%;3qttrq6444444555566655479eyt03==19tueq7446666575756665478qttu",
"%*;37rerq7444<<445576665557qree73==18eee07455666555566665578qete",
"*=;<6qqq0764<,<<457777777770qq061=-150qq077777677577777776700qqq",
"%*-138000764,--<3577777777770074:==:4600777777777777777777777007",
"*%=;<3466541-**-246644444444464>-*=;<445464446444445444544444444",
"@@$=%>><<,>-%@#*>242<<<>,<,,>>>-*$$$=>,,<><,,,,2<424<>,,<,<>>>>>",
"oo++$#%%&*##ooo#->,;-*%%*&&%$*$#+oo+@$*$%%*#%%*=>>,>**&##**&%%%#",
"XXX++++++Oooooo@*--*#OOooOOOOOooooXoooOoOOOoooO#%==*&oooOOooOOOO",
"@$@#@#+@@@@@@@#&****#@O@@@@@@@@@@##@$@@@O@@@@@@#****&@@@@@@@@@@@",
"111,1:,>::1,11,;****;>,,::1:1,:1,1111:1:,,1,>1:;****;::,,,1>11>,",
"8888779788898883;**;3339839998878899788788888863>*=>368888888888",
"utetttttttttttw83==38euuuuuuetttttttttttettuuuw81==17etutettttte",
"uuuuuuuuuuuipit83==39uipiiuuyyyyuuuuuuuuuuiiiiu92-;29yipiuuiuuuu",
"tttutytttttuipi93==3wupiieuettttttttttttttuiiiu93*;29yppiutetttt",
"99qqqq0qqqreiiu93==3quuutwq9qqrq9qqqqqqq9qwtuuuq3=-39uiitqqq99qq",
"78777777577ruuu93=-39uuy9857777777777777668quuu91;=39yitr0668778",
"575666665479ett83==39tur97355566665566555570eue02;*19tte06555555",
"655666665579wew8<==<7wrr98755566666666655560rew71=;18qee06555575",
"677776766670qq05,=-,50qq77777676766776766777qq04,--,40qq07767776",
"7677777767770764,=*,4770776677777776777777777074>=->470777666777",
"454644556644644<;-=><44666464645564466645555644<;-=;<46664446664",
"24333333334242<,-==-><22<43<433333434<<433334<<>-==-><32243422<4",
"><><:1,,,,,,>,>;-*=-;>,,><>,,,,,,,,,>>,,:,,,,,>;-*--;>,,,,,>><>,",
"---=-=---------===*-=--------=------------------=*%-*------=----",
"=%%%%*%=%==%%=%%=*=*%*%***%*****%%***%%***=%%%=**--*************",
"%%=%****%%%=%%%=**==******%**$************%=%%%=%*=***&*****%***"
};
