/* XPM */
static char *_82da1efdc37427e811d13f475dfb1d001UCJQKJwMX1bjt1[] = {
/* columns rows colors chars-per-pixel */
"64 64 186 2 ",
"   c None",
".  c #1D0C06",
"X  c #1D0E0B",
"o  c #1E1214",
"O  c #1C151C",
"+  c #22120E",
"@  c #2B190F",
"#  c #241511",
"$  c #291711",
"%  c #2B1912",
"&  c #291C1C",
"*  c #261815",
"=  c #321D14",
"-  c #200F0B",
";  c #392316",
":  c #322119",
">  c #3D261A",
",  c #342116",
"<  c #1B1622",
"1  c #1A1A2B",
"2  c #181829",
"3  c #181C32",
"4  c #171B31",
"5  c #2A1E21",
"6  c #231D26",
"7  c #1C2235",
"8  c #25222F",
"9  c #2E2122",
"0  c #332524",
"q  c #362925",
"w  c #3C2C25",
"e  c #362A2B",
"r  c #3B2E2A",
"t  c #24293D",
"y  c #252637",
"u  c #362E34",
"i  c #3D3435",
"p  c #373038",
"a  c #39333C",
"s  c #432A1A",
"d  c #4A2F1E",
"f  c #4B301F",
"g  c #50331F",
"h  c #432E23",
"j  c #4C3324",
"k  c #443129",
"l  c #4D382F",
"z  c #513523",
"x  c #553926",
"c  c #5A3C25",
"v  c #553B29",
"b  c #593C28",
"n  c #433635",
"m  c #4F3B32",
"M  c #42393B",
"N  c #533F34",
"B  c #5F422D",
"V  c #554035",
"C  c #594337",
"Z  c #5A4439",
"A  c #5F493C",
"S  c #55433C",
"D  c #4B403F",
"F  c #65452D",
"G  c #68472E",
"H  c #6B4A33",
"J  c #634B3C",
"K  c #654731",
"L  c #714F35",
"P  c #745135",
"I  c #755438",
"U  c #292E44",
"Y  c #262C41",
"T  c #2C334B",
"R  c #293045",
"E  c #3A3945",
"W  c #343C53",
"Q  c #443E45",
"!  c #413D48",
"~  c #3B445E",
"^  c #3D4254",
"/  c #3C4661",
"(  c #45414B",
")  c #484248",
"_  c #484044",
"`  c #544645",
"'  c #554A4B",
"]  c #584C4D",
"[  c #544748",
"{  c #454553",
"}  c #4A4B5A",
"|  c #464757",
" . c #594F51",
".. c #504F5C",
"X. c #5B545B",
"o. c #595257",
"O. c #6E5441",
"+. c #785D49",
"@. c #705644",
"#. c #615554",
"$. c #6C5E59",
"%. c #7E624B",
"&. c #6E615D",
"*. c #444C63",
"=. c #4B4E62",
"-. c #434E6B",
";. c #454B65",
":. c #46516D",
">. c #4C536B",
",. c #4E5064",
"<. c #545464",
"1. c #5A5663",
"2. c #55576A",
"3. c #55586A",
"4. c #5E5D6C",
"5. c #5D5864",
"6. c #475472",
"7. c #4D5671",
"8. c #4D5977",
"9. c #4E5B7B",
"0. c #545C74",
"q. c #565F7B",
"w. c #605F6F",
"e. c #5D6374",
"r. c #5B637B",
"t. c #7A6B63",
"y. c #756862",
"u. c #626373",
"i. c #64677A",
"p. c #75727B",
"a. c #78757F",
"s. c #61606F",
"d. c #8E7B6D",
"f. c #87756A",
"g. c #907D6E",
"h. c #927E70",
"j. c #566383",
"k. c #5A6683",
"l. c #5E6986",
"z. c #5D6A8B",
"x. c #616A86",
"c. c #646D8A",
"v. c #687184",
"b. c #6C758D",
"n. c #626F91",
"m. c #647294",
"M. c #667598",
"N. c #687699",
"B. c #69799F",
"V. c #727F9E",
"C. c #797780",
"Z. c #6A7AA1",
"A. c #807E83",
"S. c #7D8499",
"D. c #7B8295",
"F. c #7483A5",
"G. c #8A8487",
"H. c #96908F",
"J. c #838B9C",
"K. c #959191",
"L. c #9D9693",
"P. c #958F8E",
"I. c #A19995",
"U. c #8C95A5",
"Y. c #8592AC",
"T. c #9498A6",
"R. c #8797B4",
"E. c #868FA1",
"W. c #9BA6B9",
"Q. c #9EA2AB",
"!. c #A3A7AF",
"~. c #A4A8AF",
"^. c #A5AAB2",
"/. c #A6AEB9",
"(. c #A9ADB2",
"). c #AEB0B5",
"_. c #B0B3B7",
"`. c #9EACC2",
"'. c #ACB5C2",
"]. c #AFBACB",
"[. c #B6BEC8",
"{. c #B0BBCB",
"}. c #B9C1CA",
"|. c #BAC5D1",
" X c #BCC7D2",
".X c #BDC8D3",
/* pixels */
"                                                                                                                                ",
"                                                                                                                                ",
"                                                                                                                                ",
"                                                                                                                                ",
"                  X X . . . . . . . . X X - - - X + X X X - X X X X X X X X X X X - X X . X . X . . . X . X X                   ",
"                + + # + + + + + + - - + - + - - - + + + + # + + + + + + + + + # + - + + X + - - + # # X X + + -                 ",
"                # # % * & & 5 5 & 5 5 & * * $ + # # $ # # # $ # # $ # $ $ # # # $ $ % * & & 5 5 5 5 & & * $ $ #                 ",
"              $ % = & 0 e p p E E a p u 0 = = = = = = = = = = = = = = = = = = = = = & 0 e p a E E p p e q & = = $               ",
"          - $ % = > w n ! | =.=.,.;.| Q n h > > ; > > > > > > > > > > > > > > > > > w n Q | =.=.=.=.} Q n h > = = + +           ",
"        - - $ = > h v [ 1.r.l.x.c.x.q.1.Q l j d h j j j j j j j j j h j j j j h d j l ` 1.r.x.x.x.x.q.1.` l h ; = $ # X         ",
"        - + % = s j C #.i.b.V.V.F.V.b.u.#.N b x x c c x z x x x x v v x x x x x z v C  .u.b.V.F.V.V.b.u.#.C z s = $ + X         ",
"        X + % = s c J &.C.J.R.R.R.Y.J.p.&.O.B B F b B C K b B F B B B F B B F b B F J &.C.J.Y.R.R.R.J.C.&.J c s = @ + .         ",
"        X - % s j B O.f.G.T./.`.`.W.T.G.t.@.K F F H H K H H H K K H H H H K H F F H I t.G.T.W.`.`.W.T.G.f.H c d ; $ X X         ",
"        - - * = g F +.f.K.!.'.].[.'.!.K.f.+.L L H L L L L L L L L L L L L L L L H L +.f.K.~.'.{.{.'.!.L.f.L F z ; % + X         ",
"        X - = = g H I g.I._.{.|..X[.(.I.g.f.I P P I I I I I I I I I I I I I I L P I f.d.L.).[.|..X[._.I.d.f.H z > % + X         ",
"        X - = s z H f.h.I._.[..X.X[.).I.d.I I L P I I I I I I I I I I I I O.I P L I I d.I._.}..X.X[._.I.f.f.H x > % + X         ",
"        X - * > g L f.g.I._.[. X X}.).I.d.I P L P I I I I I I I I I I I I I P P L P f.h.I._.[..X.X[._.I.g.f.F g s @ + .         ",
"        X # % > g L I d.I.).[. X X[.).L.d.f.P L P P I I I I I P I I I I I I P P L P @.d.L._.[.|.|.[._.I.g.%.F g s @ + .         ",
"        X + % s g G f.g.I.).[. X X[._.I.d.I I L P I P I I P I I I I I P I I P P L I +.d.L.).[.|.|.[.).I.f.+.G c ; @ . -         ",
"        X + % ; g G I g.I.).[.}.[.[.).I.d.f.P P L I I I I I I I I I I I I I P P P I %.d.L.).[.|.|.[.).I.f.f.H z s @ + .         ",
"        X - % ; z H f.d.I.).[.|..X}.).L.d.f.G G L I I I I I I I I P I I I I P P P I f.f.L.).[.|.|.[.).I.h.+.L z s % - X         ",
"        X - % s z H I d.I.).[.|.}._.).L.d.+.P P P I I I I I I I I I I I I I I P L P I f.I.).[.[.|.[.).I.f.f.G c = % + X         ",
"        X + % ; g H f.g.I.).[. X.X}.).L.g.%.P P L I I I I I I I I I I I I I P P P I f.f.I._.[.|.|.[._.I.f.I G g s % + -         ",
"        X + % > c G I g.I.).[..X.X}._.I.g.%.P P L I I I I I I I I I I I I I P P P I I d.I._.[..X|.[._.I.g.f.G g = = + +         ",
"        X - % > x H f.f.I._.[..X.X}._.I.f.I I P P I I I I I I I I I P I I I I P L I f.d.I._.[..X.X}._.I.g.I H z s = + X         ",
"        X + % > z H f.d.I._.[..X}.}._.I.f.f.I P P P I I I I I I I I P P P I I P L I I d.L.).{.[..X[.).I.g.f.H z ; % - X         ",
"        X - % > z K L f.H.~.'.{.].'.!.P.f.O.P G G L P L L H L L P P L L L L P L H L +.f.P.!.'.].{.'.!.P.f.+.F z = % - X         ",
"        X + $ ; d b L %.A.T.W.W.`.W.T.h.f.O.G F F F F F F F F F G G F F F F F F F G O.t.h.T.W.`.W.W.T.G.t.L B d s % + X         ",
"        X # $ = s c J $.p.J.Y.R.Y.Y.J.p.$.K c c c c c c b c c c c b c c c c c c c c J $.p.J.Y.R.R.Y.J.p.$.J x s = $ + X         ",
"        X - % = s j Z #.u.b.V.F.V.V.b.u.#.N b c c c c z x x v v v b v v g c c c b b N #.u.b.V.V.F.V.b.s.#.Z j s = # + X         ",
"        X + # = h v ` X.u.c.N.B.Z.M.c.w.X.Q Z N Z K ` J J ` J J J Z J Z J ` J b N N ` o.u.c.N.Z.B.N.v.u.X.` l h , $ + X         ",
"        . # * q n ) X.4.x.c.N.N.Z.m.n.x.w.X.#.#.$.&.f.y.t.y.t.t.t.t.t.t.t.t.y.$.#. .X.4.i.n.M.N.N.N.c.x.4.X.[ n q * + X         ",
"        . + & u ) <.e.i.n.m.N.N.M.m.m.z.r.e.i.p.D.G.K.K.K.K.K.K.K.K.K.K.K.H.G.G.p.i.e.i.z.m.M.M.M.M.m.m.x.u.5.) e & + X         ",
"        . + & p } r.c.m.m.m.M.m.M.D.m.n.n.k.D.D.K.Q.(.(.(.^.^.(.^.^.^.(.(.(.Q.U.D.b.c.c.m.m.M.M.M.M.m.m.m.c.r.| a & + .         ",
"        . + 5 p } 0.z.n.n.n.m.n.n.n.n.z.z.x.n.D.U.W./././.^./.^.^.^.^./././.Q.U.S.b.x.l.z.c.n.n.n.n.n.m.z.z.e.} p & + .         ",
"        X + * u Q =.3.r.k.r.k.k.j.j.r.q.0.0.e.p.D.E.U.U.U.J.S.S.J.J.E.E.U.Y.E.D.v.e.0.0.r.j.k.k.k.k.j.r.r.3.=.E e & o .         ",
"        X + # 9 p Q { } >.8.8.9.9.9.6.:.| { | <.e.p.v.v.i.r.e.e.e.e.r.i.v.b.v.e.<.{ { } ,.7.9.9.9.8.7.>.} { _ u 9 * + .         ",
"        X + # * : q i Q ^ *.:.6./ 9.*.^ M i i _ } >.7.:./ ^ ^ ^ ^ ^ ~ ~ >.7.>.} Q i n a { ;.-.6.6.:.;.{ Q i q : * # + -         ",
"        + + + @ @ : q a ^ } :.6.6.:.*.^ i w w i { / / / W R t y 7 t R W ~ *.} ^ M w w i W =.-.6.6.6./ ^ a q : % $ + + X         ",
"        + + + + @ , q i { :.8.9.9.8.<.{ M w w D { >.:./ T Y 7 7 7 7 Y T / :.,.{ M w w n { >.8.9.9.8.>.{ i q = @ $ + + o         ",
"      O o + + + @ , q a ..r.k.z.z.k.e.} D r l D ..0.8.-.W Y 7 7 7 7 t ^ / 9.q..._ k l D ..q.j.z.z.k.r.} M q : @ $ + + o O       ",
"    1 O o + + $ @ : r _ >.r.n.M.M.n.l.1.[ V V ' 4.l.j.8./ T Y 7 7 t T ~ 8.k.k.4.' m m [ 1.i.n.M.M.n.r.<.) w : @ + + o o O 2     ",
"  3 1 O o + + $ @ : r ) 3.l.N.B.F.M.z.4.' V V ' 4.x.z.j.-.W T U R ^ ^ / r.z.x.w.] N V ' w.x.N.B.Z.M.l.3.) r : @ @ + + o O 1 3   ",
"  3 1 O o + + @ @ : r ) 3.c.N.B.B.M.x.4.] V V ] u.c.n.z.9.-./ ~ ~ / / 9.z.m.c.u.] V V ] w.c.N.Z.Z.M.z.3.) r : @ @ + + o O 1 3   ",
"  3 1 O o o + + % : r ) 3.l.N.B.B.N.c.4.] V V ] w.c.M.n.j.j.9.9.9.9.j.z.n.M.c.u.] V V ] 4.c.N.B.Z.M.z.3.) r : @ + + o o O 1 3   ",
"  3 1 O o o + @ @ : r ) 3.l.N.B.B.N.x.4.' V V ' 4.c.m.N.n.n.z.l.z.z.z.m.M.m.x.4.] V N ] w.x.N.B.Z.M.l.3.) r : % $ + + o < 1 3   ",
"  3 1 O o + + + @ : r ) 3.x.N.B.B.N.c.4.' V V ` 1.i.c.c.n.c.x.c.z.v.x.v.n.x.i.1.` V V ' 4.x.N.B.Z.N.z.3.) r , @ @ + o o O 1 3   ",
"  3 1 O o + + @ % : r ) 3.l.N.B.B.N.c.4.' V v S  .5.4.u.u.s.u.u.e.e.e.e.e.4.5. .S v N ] 4.x.N.B.Z.m.x.3.) r , @ + + # o O 1 3   ",
"  3 1 O o + + @ @ : r ) 3.x.N.Z.Z.m.c.w.] N v m N ]  . . . . .o. . . . . .] [ ` N l N ] w.x.N.B.B.m.c.3.) r : @ @ + + O O 1 4   ",
"  3 1 O o o + + @ : r ) 3.l.N.Z.Z.N.x.w. .N v z l N N N N N N N N N N N N N N z z x N  .w.x.N.B.Z.N.l.3.) r : @ @ + + o O 2 3   ",
"  3 1 < o o # # @ : q ) 3.l.N.B.N.N.c.w.] N z j j z z z z z j z z z z z z z z z z z N ] w.x.N.B.B.N.l.3.) q & @ + # o O < 1 3   ",
"  3 1 < O O o # @ % q E 3.l.N.Z.Z.N.c.w. .N z g g z g j z z z z z z j z z z j g g z N  .w.c.N.Z.Z.N.l.2.Q q % # + # O O < 1 3   ",
"3 3 3 1 < < O # + * 9 E <.l.N.Z.Z.N.n.w. .N z g z z z z z z z z z j z z z j z z z z N  .w.c.N.Z.Z.N.l.>.E 0 # + o * < 1 1 1 7 3 ",
"    3 3 1 1 < o o # 9 a ,.l.N.Z.Z.M.c.w. .N z g g z z j j z z j z z z z z j z z g z N  .w.c.N.B.Z.N.l.,.a 9 # o O < 1 1 3 3     ",
"            1 O o o 9 E *.r.n.M.m.n.x.4.' m z j j j j j l j j j j j l j j j j j j z m ' 4.k.n.M.N.n.j.=.a 9 o o O 2             ",
"            3 < O o 6 p ^ 8.j.j.j.j.0.,.! n k h h k k k k k k k k k k k k k k k k k n Q =.8.j.j.k.j.7.^ p 6 O o < 1             ",
"            4 2 < O 6 t W / -.-.:.-.*.W E u r e e e e e e e e e e e e e e e e e e e u E { *.-.-.-.-.~ W t 6 < < 2 4             ",
"            4 4 1 1 1 y y U U T T T U Y y 8 8 8 8 8 8 8 8 8 8 8 8 8 8 8 8 8 8 8 8 8 8 y U U T T T U U t y 1 1 1 1 4             ",
"                            3 3 3 3 3 3 7 3 3 3 3 3 3 3 3 3 3 3 4 3 3 3 3 3 3 3 3 3 3 3 4 3 3 3 3 3                             ",
"                                                                                                                                ",
"                              4                                                                 4                               ",
"                              3 4                                                             4 4                               ",
"                              3 3 3 3 3 3 3 3 4 3 3 3 3 3 3 3 3 3 3 3 4 3 3 3 3 3 4 3 3 3 3 3 3 3                               ",
"                              3 3 3 3 3 3 3 3 3 3 3 3 3 3 3 3 3 3 3 3 3 3 3 3 3 3 3 3 3 3 3 3 3 3                               "
};
