/* XPM */
static char *_d128fff5a2c46f4f70fa1903e2c0c38GZtsDhI804drhNcG[] = {
/* columns rows colors chars-per-pixel */
"16 16 7 1 ",
"  c None",
". c black",
"X c #21110D",
"o c #342319",
"O c #503625",
"+ c #755338",
"@ c #677598",
/* pixels */
"@XXXXXXXXXXXXXX@",
"X++++++++++++++X",
"X++++++++++++++X",
"XOooooooooooooOX",
"X+oO..........+X",
"X+oO..........+X",
"X+oO..........+X",
"X+oO..........+X",
"X+oO..........+X",
"X+oO..........+X",
"X+oO..........+X",
"X+oO..........+X",
"X+oO..........+X",
"X+oO..........+X",
"X..............X",
".              ."
};
