/* XPM */
static char *result[] = {
/* columns rows colors chars-per-pixel */
"64 64 209 2 ",
"   c #000000",
".  c #0A0504",
"X  c #140C01",
"o  c #190007",
"O  c #001200",
"+  c #191403",
"@  c #171504",
"#  c #02001D",
"$  c #000010",
"%  c #1B001A",
"&  c #230107",
"*  c #26000A",
"=  c #241508",
"-  c #341D0B",
";  c #390718",
":  c #3F111D",
">  c #172201",
",  c #1B2D01",
"<  c #1C3200",
"1  c #0B3600",
"2  c #282705",
"3  c #2C2A05",
"4  c #312F07",
"5  c #3B240B",
"6  c #2D3902",
"7  c #313D04",
"8  c #382416",
"9  c #3B1126",
"0  c #540418",
"q  c #423D0C",
"w  c #492C12",
"e  c #44241C",
"r  c #452B11",
"t  c #582A18",
"y  c #4A3113",
"u  c #45331E",
"i  c #4A341D",
"p  c #4C3C11",
"a  c #56371A",
"s  c #49260B",
"d  c #4A2927",
"f  c #503421",
"g  c #5C3D27",
"h  c #593525",
"j  c #56352A",
"k  c #643825",
"l  c #6C3F31",
"z  c #723125",
"x  c #314902",
"c  c #404100",
"v  c #45440D",
"b  c #4A460E",
"n  c #4C490F",
"m  c #445200",
"M  c #52520E",
"N  c #4C4A10",
"B  c #504D10",
"V  c #514711",
"C  c #575414",
"Z  c #52480D",
"A  c #67431E",
"S  c #72401F",
"D  c #665919",
"F  c #636117",
"G  c #696419",
"H  c #6E6C1A",
"J  c #656816",
"K  c #726F1D",
"L  c #6F711A",
"P  c #79741E",
"I  c #7D7B1E",
"U  c #707514",
"Y  c #454020",
"T  c #68462D",
"R  c #64472C",
"E  c #794826",
"W  c #7C5C21",
"Q  c #6C4E30",
"!  c #7D4C36",
"~  c #765235",
"^  c #7B5C3A",
"/  c #7A523B",
"(  c #695228",
")  c #7D6020",
"_  c #7D7A20",
"`  c #855428",
"'  c #895229",
"]  c #8A5929",
"[  c #855926",
"{  c #875938",
"}  c #965E37",
"|  c #965B2E",
" . c #867D22",
".. c #8B633E",
"X. c #956332",
"o. c #9A6635",
"O. c #916D2A",
"+. c #A56B34",
"@. c #AA6B36",
"#. c #AE7339",
"$. c #AA7433",
"%. c #B4753C",
"&. c #B57B3A",
"*. c #B16C37",
"=. c #FF4E2C",
"-. c #FF5036",
";. c #FF7B2D",
":. c #FF643B",
">. c #FF6C3A",
",. c #FF6336",
"<. c #FF743C",
"1. c #865F43",
"2. c #866141",
"3. c #8B6343",
"4. c #9E6C48",
"5. c #9C7144",
"6. c #9E7A49",
"7. c #A76B42",
"8. c #B47941",
"9. c #BD7D43",
"0. c #B57E4F",
"q. c #AF7E53",
"w. c #B07C50",
"e. c #A37449",
"r. c #C97F43",
"t. c #7D8322",
"y. c #82831E",
"u. c #858322",
"i. c #898424",
"p. c #8D8925",
"a. c #818028",
"s. c #8A8028",
"d. c #928C27",
"f. c #968C29",
"g. c #988826",
"h. c #969127",
"j. c #979128",
"k. c #9C972B",
"l. c #A29D2C",
"z. c #A69B2C",
"x. c #A88137",
"c. c #B08D30",
"v. c #A69732",
"b. c #B89636",
"n. c #A6A22C",
"m. c #ABA32F",
"M. c #B0B12F",
"N. c #B5AD32",
"B. c #BAA934",
"V. c #BCB535",
"C. c #BFB836",
"Z. c #AEA733",
"A. c #C88D3E",
"S. c #C8AB3A",
"D. c #C1BA36",
"F. c #C6BE38",
"G. c #FFFF17",
"H. c #D6CF3E",
"J. c #D8C23F",
"K. c #DAD03F",
"L. c #D7D03E",
"P. c #C7C038",
"I. c #FFFF24",
"U. c #FFFF2A",
"Y. c #FFFF33",
"T. c #FFFF3C",
"R. c #BA8046",
"E. c #B58556",
"W. c #BC8857",
"Q. c #B29053",
"!. c #C48241",
"~. c #CC8B43",
"^. c #CD8C4A",
"/. c #C78648",
"(. c #D48E4B",
"). c #D78E4B",
"_. c #DA934C",
"`. c #D7964B",
"'. c #C78952",
"]. c #D78F50",
"[. c #CC935D",
"{. c #C89159",
"}. c #D49454",
"|. c #DA9654",
" X c #DB9B55",
".X c #DA9C5D",
"XX c #D8975B",
"oX c #E09A59",
"OX c #D1AA41",
"+X c #DDA556",
"@X c #CD9861",
"#X c #D49C64",
"$X c #DB9E62",
"%X c #DBA166",
"&X c #DDA56A",
"*X c #E0A66A",
"=X c #E2A86D",
"-X c #C0C040",
";X c #D9C341",
":X c #FFFF44",
">X c #FFFF4B",
",X c #FFFF5C",
"<X c #FFFF66",
"1X c #FFFF69",
"2X c #FF8280",
"3X c #FF9180",
"4X c #FFA480",
"5X c #FFFF80",
"6X c None",
/* pixels */
"~ ~ ~ ~ ~ ~ ~ ~ ~ ~ ~ ~ / ~ ~ ~ ~ ~ ~ ~ ~ ~ ~ ~ ~ ~ ~ ~ ~ ~ ~ ~ ~ ~ ~ ~ ~ ~ ^ ~ ~ ~ ~ ~ ~ ~ ~ ~ ~ ~ ~ ~ ~ ~ ~ ~ ~ ~ ~ ~ ~ ~ ~ ~ ",
"~ ~ ~ ~ ~ ~ ~ ~ ~ ~ ~ ~ ~ ~ ~ ~ ~ ~ ~ ~ ~ ~ ~ ~ ~ ~ ~ ~ ~ ~ ~ / ~ ~ ~ ~ ~ ~ ~ ~ ~ ~ ~ ~ ~ ~ ~ ~ ~ ~ ~ ~ ~ ~ ~ ~ ~ ~ ~ ~ ~ ~ ~ ~ ",
"~ ~ ~ ~ ~ ~ ~ ~ ~ ~ ~ ~ ~ ~ ~ ~ ~ ~ ~ ~ ~ ~ ~ ~ ~ ~ ~ ~ ~ ~ ~ ~ ~ ~ ~ ~ ~ ~ ~ ~ ~ ~ ~ ~ ~ ~ ~ ~ ~ ~ ~ ~ ~ ~ ~ ~ ~ ~ ~ ~ ~ ~ ~ ~ ",
"~ ~ ~ ~ ~ ~ ~ ~ ~ ~ ~ ~ ~ ~ ~ ~ ~ ~ ~ ~ / ~ ~ ~ ~ ~ / ~ ~ ~ ~ ~ ~ ~ ~ ~ ~ ~ ~ ~ ~ ~ ~ ~ ~ ~ ~ ~ ~ ~ ~ ~ ~ ~ ~ ~ ~ ~ ~ ~ ~ ~ ~ ~ ",
"~ ~ ~ ~ ~ ~ ~ ~ ~ ~ ~ ~ ~ ~ ~ ~ ~ ~ ~ ~ ~ ~ ~ ~ ~ ~ ~ ~ ~ ~ ~ ~ ~ ~ ~ ~ ~ ~ ~ ~ ~ ~ ~ ~ ~ ~ ~ ~ ~ ~ ~ ~ ~ ~ ~ ~ ~ ~ ~ ~ ~ ~ ~ ~ ",
"~ ~ ~ ~ ~ ~ ~ ~ ~ ~ ~ ~ ~ ~ ~ / ~ ~ ~ ~ ~ ~ ~ ~ ~ ~ ~ ~ ~ ~ ~ ~ ~ ~ ~ ~ ~ ~ ~ ~ ~ ~ ~ ~ ~ ~ ~ ~ / ~ ~ ~ ~ ~ ~ ~ ~ ~ ~ ~ ~ / ~ ~ ",
"~ ~ ~ Q ~ ~ Q ~ ~ Q ~ ~ Q ~ ~ ~ ~ ~ ~ ~ ~ ~ ~ Q ~ ~ ~ ~ ~ ~ ~ ~ ~ ~ ~ ~ ~ ~ ~ ~ ~ ~ ~ ~ ~ ~ Q ~ ~ ~ ~ ~ ~ ~ Q ~ ~ ~ Q ~ ~ ~ ~ ~ ",
"T T T T T T T T T T T T T T T ~ ~ ~ / ~ ~ ~ ~ T T ~ ~ ~ ~ ~ ~ ~ ~ ~ ~ ~ ~ ~ ~ ~ ~ ~ ~ ~ ~ ~ T T T T R T T T T T T T T T R T T T ",
"g g g g g g g g g g g g g g g T Q ~ ~ ~ ~ ~ T g g T Q ~ ~ ~ ~ ~ ~ ~ ~ ~ ~ ~ ~ ~ ~ { ~ ~ ~ T g g g g g g g g g g h g g g g g g g ",
"f f f f f f f f f a f f f f f g T ~ ~ ~ ~ T g f f k T ~ ~ ~ ~ ~ ~ ~ ~ ~ ~ ~ ~ ~ ~ ~ ~ ~ T g f f f f f f f f f f f a f f f f f f ",
"f f f f f f a f f f f f f f f g T ~ ~ ~ ~ T g a f g ( ~ ~ ~ ~ ~ ~ ~ ~ ~ ~ ~ ~ ~ ~ ~ ~ Q T g f a f f f f f f a f f f f f f f f f ",
"g g g g g g g h g g g g g g g T ~ ~ ~ ~ ~ Q T g g T ~ ~ ~ ~ ~ ~ ~ ~ ~ / ~ ~ ~ ~ ~ ~ ~ ~ ~ R g k g g g g g g g g g g g g g g g g ",
"T T T T T T T T T T T T T T T ~ ~ ~ ~ ~ ~ ~ Q R T ~ ~ ~ ~ ~ ~ / ~ ~ ~ ~ ~ ~ ~ ~ ~ ~ ~ ~ ~ ~ T T T T T T T T T T T T T T T T T T ",
"~ ~ ~ Q Q ~ ~ ~ ~ ~ Q ~ Q ~ ~ ~ ~ ~ / ~ ~ ~ ~ ~ ~ ~ ~ ~ ~ ~ ~ ~ ~ ~ ~ ~ ~ ~ ~ ~ ~ ~ ~ ~ ~ ~ ~ ~ ~ Q ~ ~ ~ ~ Q ~ ~ Q ~ ~ ~ Q Q ~ ",
"~ ~ ~ ~ ~ ~ ~ ~ ~ ~ ~ ~ ~ ~ ~ ~ ~ ~ ~ ~ ~ ~ ~ ~ ~ ~ ~ ~ ~ ~ ~ ~ ~ ~ ~ ~ ~ ~ ~ ~ ~ ~ ~ ~ ~ ~ ~ ~ ~ ~ ~ ~ ~ ~ ~ ~ ~ ~ / ~ ~ ~ ~ ~ ",
"~ ~ ~ ~ ~ ~ ~ ~ ~ ~ ~ ~ ~ ~ ~ ~ ~ ~ ~ ~ ~ ~ ~ ~ ~ ~ ~ ~ ~ ~ ~ ~ ~ ^ ~ ~ ~ ~ ~ ~ ~ ~ ~ ~ ~ ~ ~ ~ ~ ~ ~ ~ ~ ~ ~ ~ ~ ~ ~ ~ ~ ~ ~ ~ ",
"~ ~ ~ ~ ~ ~ ~ ~ ~ ~ ~ ~ ~ ~ ~ ~ ~ ~ ~ ~ ~ ~ ~ ~ ~ ~ ~ ~ ~ ~ ~ ~ ~ ~ ~ ~ ~ ~ ~ ~ ~ ~ ~ ~ ~ ~ ~ ~ ~ ~ ~ ~ ~ ~ ~ ~ ~ ~ ~ ~ ~ ~ ~ ~ ",
"~ ~ ~ ~ ~ ~ ~ ~ ~ ~ ~ ~ ~ ~ ~ ~ ~ ~ ~ ~ ~ ~ ^ ~ ~ ~ ~ ~ ~ ~ ~ ~ ~ ~ ~ ~ ~ ~ ~ ~ ~ ~ ~ ~ ~ ~ ~ ~ ~ ~ ~ ~ ~ ~ ~ ~ ~ ~ ~ ~ ~ ~ ~ ~ ",
"~ ~ ~ ~ ~ / ~ ~ ~ ~ ~ ~ ~ ~ ~ ~ ~ ~ ~ ~ ~ ~ ~ ~ ~ ~ ~ ~ ~ ~ ~ ~ ~ ~ ~ ~ ~ ~ ~ ~ / ~ ~ ~ ~ ~ ~ ~ ~ ~ ~ ~ ~ ~ ~ ~ ~ ~ ~ ~ ~ ~ ~ ~ ",
"~ ~ ~ ~ ~ ~ ~ ~ ~ ~ ~ ~ / ~ ~ ~ ~ ~ ~ ~ ~ ~ ~ ~ ~ / ~ ~ ~ ~ ~ / ~ ~ ~ ~ ~ ~ ^ ~ ~ ~ ~ ~ ~ ~ ~ ~ ~ ~ ~ ~ ~ ~ ~ ~ ~ / ~ ~ ~ ~ ~ ~ ",
"~ ~ ~ ~ ~ ~ ~ ~ ~ ~ ~ / / ~ ~ ~ ~ ~ ~ ~ ~ ~ ~ ~ ~ ~ ~ ~ ~ ~ ~ ~ ~ ~ ~ ~ ~ ~ ~ ~ ~ ~ ~ ~ ~ ~ ~ ~ ~ ~ ~ ~ / ~ ~ ~ ~ ~ ~ ~ ~ ~ ~ ~ ",
"~ ~ ~ ~ ~ ~ ~ ~ ~ ~ ~ ~ ~ ~ ~ ~ ~ ~ ~ ~ ~ ~ ~ ~ ~ ~ ~ ~ ~ ~ ~ ~ ~ ~ ~ / ~ ~ ~ ~ ~ ~ ~ ~ ~ ~ ~ ~ ~ ~ ~ ~ ~ ~ ~ ~ ~ ~ ~ ~ ~ ~ / ~ ",
"~ ~ ~ ~ ~ ~ ~ ~ ~ ~ ~ ~ ~ ~ ~ ~ ~ ~ ~ ~ ~ ~ ~ ~ ~ ~ ~ ~ ~ ~ ~ ~ ~ ~ ~ ~ / ~ ~ ~ ~ ~ ~ ~ ~ ~ ~ ~ ~ ~ ~ ~ ~ ~ ~ ~ ~ / ~ ~ ~ ~ ~ ~ ",
"~ ~ ~ ~ ~ ~ ~ ~ ~ ~ ~ ~ ~ ~ ~ ~ ~ ~ ~ ~ ~ ~ ~ ~ ~ ~ ~ ~ ~ 6X6X6X6X6X6X6X6X6X6X6X~ ~ ~ ~ ~ ~ ~ ~ ~ ~ ~ ~ ~ ~ ~ ~ ~ ~ ~ ~ ~ ~ ~ ~ ",
"~ ~ ~ ~ ~ ~ ~ ~ ~ ~ ~ ~ ~ ~ ~ ~ ~ ~ ~ ~ ~ ~ ~ ~ ~ ~ ~ ~ 6X                    6X6X~ ~ ~ ~ ~ ~ ~ ~ ~ ~ ~ ~ ~ ~ ~ ~ ~ ~ ~ ~ ~ ~ ~ ",
"/ ~ ~ ~ ~ ~ ~ ~ ~ ~ ~ ~ ~ ~ ~ ~ / ~ ~ ~ ~ ~ ~ ~ ~ ~ ~ 6X                        6X~ ~ ~ ~ ~ ^ ~ ~ ~ ~ ~ ~ ~ ~ ~ ~ ~ ~ ~ ~ ^ ~ ~ ",
"~ ~ ~ ~ ~ ~ ~ ~ ~ ~ ~ ~ ~ ~ ~ ~ ~ ~ ~ ~ ~ ~ ~ ~ ~ ~ 6X6X$ & = - r w y i a f Y u 6X~ ~ ~ ~ ~ ~ ~ ~ ~ ~ ~ ~ ~ ~ ~ ~ ~ ~ ~ ~ ~ ~ ~ ",
"T T T T T T T T T T T Q T T T T T T T Q T T T T T 6X6X$ $ % e g E [ X.o.5.5...^ Q 6X6X6X~ ~ ~ ~ ~ ~ ~ / ~ ~ ~ ~ ~ ~ ~ ~ ~ Q T T ",
"g g g g g g g g g g g g g g g g k A g g g g g g 6X      # % j ' X.#.R./.{.{.W.6.^ u   6X6X~ ~ ~ ~ ~ ~ ~ ~ ~ ~ ~ ~ ~ ~ ~ ~ T g g ",
"f f f f f f f f f f f f f f f f f f f f f f f 6X      $ # 9 T { *.A.(. X$X%X[.E.3.i     6X~ ~ ~ ~ ~ ~ / ~ ~ ~ ~ ~ ~ ~ ~ T g f a ",
"f f f f f f f f f f f f f f f f f f f f f f 6X6X5 s a h l l -.:.<./.]. X.X%X@XE...i     6X~ ~ ~ ~ ~ ~ ~ ~ ~ ~ ~ ~ ~ ~ ~ T g f f ",
"g g g g g f f g g g g g g g g g g g g g g 6X6Xt S [ o.o.X.} :.#.>.%.R.R.'.{.Q.6.^ u   6X/ ~ ~ ~ ~ ~ ~ ~ ~ ~ ~ ~ ~ ~ ~ ~ Q T g g ",
"T T T T g f f g T T T T T T T T T T T T 6X    z | @.b.!.9.%.>.>.,.} } { 3...^ ~ R 6X6X~ ~ ~ ~ ~ ~ ~ ~ ~ ~ ~ ~ ~ ~ ~ ~ ~ ~ ~ T T ",
"~ Q ~ T g f f g T ~ Q ~ ~ ~ Q ~ ~ Q ~ 6X    & E @.:X)._.(.^.!.#.} ! j d e : = @ 6X6X~ ~ ~ ~ ~ ~ ~ ~ ~ ~ ~ ~ ~ ~ ~ ~ ~ ~ ~ / ~ ~ ",
"~ ~ ~ T g f f g T ~ ~ ~ ~ ~ ~ ~ ~ ~ 6X6X1 x D O.%.!.:X>X:X_.(.9.7./ l d u 8 = @ 6X~ ~ ~ ~ ~ ~ ^ ~ ~ ~ ~ ~ ~ ~ ~ ~ ~ ~ ~ ~ ~ ~ ~ ",
"~ ~ ~ T g f f k T Q ~ ~ ~ 6X6X6X6X6X6XL I p.k.c.x.#.<.2X>X|.}.'.w.4.1.1.2.^ ^ ~ ( 6X6X6X6X6X6X6X~ ~ ~ ~ ~ ~ ~ ~ ~ ~ ~ ~ ~ ~ ~ ~ ",
"~ ~ ~ ~ T g g T ~ ~ ~ ~ 6X          B i.Z.V.F.N.g.W =.:.>X[.$XXX{.W.E.E.W.E.E.5.^ i           6X6X~ ~ ~ ~ ~ ~ ~ ~ ~ ~ ~ ~ ~ ~ ~ ",
"~ ~ ~ ~ ~ T T Q ~ ~ ~ 6X            M f.-XT.H.V.y.c 0 / q.@X%X*X$X#X@X#X%X#X3XQ.2.f             6X~ ~ ~ ~ ~ ~ ~ ~ ~ ~ ~ ~ ~ ~ ~ ",
"~ ~ ~ ~ ~ ~ ~ ~ ~ ~ 6X6Xn b N 3     b d.C.H.T.U.G.c : / E.@X&X=X*X&X&X<X1X1X@XE...i     6 n b n 6X~ ~ ~ ~ ~ ~ ~ ~ ~ ~ ~ ~ ~ ~ ~ ",
"~ ~ ~ ~ ~ ~ ~ ~ ~ 6X6XG a.d.j._ q   @ K l.V.Y.m.I.W ~ 4.W.#X=X=X*X*X&X<X4X<XXXE.{ e O m I h.d.i._ 6X6X6X~ ~ ~ ~ ~ ~ ~ ~ ~ ~ ~ ~ ",
"~ ~ ~ ~ ~ ~ ~ ~ 6X    _ m.V.D.n.H     > J i.U.U.;.$.8.'.[.#X&X&X&X&X$X$X<X,X^.7.! ; , U n.C.C.n. .n   6X6X~ ~ ~ ~ ~ ~ ~ ~ ~ ~ / ",
"~ ~ ~ ~ ~ ~ ~ 6X    3 i.V.T.H.V.u.2       6 D O.$.r.(.}.$X#X%X&X&X&X$X$X|._.r.+.z * 7 y.V.H.L.C.d.Z     6X~ ~ ~ ~ ~ ~ ~ ~ ~ ~ ~ ",
"~ ~ ~ ~ ~ ~ 6X6X  3 H n.F.L.T.Y.U.G 2       o z +.A.(.}.XX$X%X%X#X$X#X$X X`.A.$.S * 7 u.V.L.L.C.d.N     6X~ ~ ~ ~ ~ ~ ~ ~ ~ ^ ~ ",
"~ ~ ~ ~ ~ 6X6XG P u.l.M.V.C.Y.N.U.k. .F <     0 ' $.R.^.}.XX.X$X$X$X.X+X>X:XS.c.) - , L n.D.C.m. .N   6X~ ~ ~ ~ ~ ~ ~ ~ ~ ~ ~ ~ ",
"~ ~ ~ ~ 6X  b t.v.V.P.V.n.f.I.U.Y.C.V.k.L >   o t E o.#.'.].oXoXoXXX X>X5X:XJ.B. .q   v I j.d.i.K 6X6X/ ~ ~ ~ ~ ~ ~ ~ ~ ~ ~ ~ ~ ",
"~ ~ ~ 6X    n d.C.H.;XC.p.C C p.C.H.H.V.p.v       = A X.%.)._._.].).`.>X>X:XL.V.p.Z     3 n b n 6X6X~ ~ ~ ~ ~ ~ ~ ~ ~ ~ ~ ~ ~ ~ ",
"~ Q ~ 6X    b d.C.L.H.N._     P N.H.H.C.p.N         - S +.9.A.~.r.r.~.S.;XL.Y.-Xi.Z             6X~ ~ Q ~ Q ~ ~ ~ Q ~ ~ Q ~ ~ ~ ",
"T T T 6X6X  n s.m.C.C.n.D     F k.C.D.m. .v           a ] +.&.%.*.*.&.b.S.C.M.n.u.n           6XT T T T T T T T T T T T T T T R ",
"g g g g 6X6X6XK i.d.j. .n     n _ d.j. .D 4           w A ` ] ] ' ` ] O.f.h.i.t.L 6X6X6X6X6X6Xg g g g g g g g g g g g g g g g g ",
"f f f f f f f 6Xn b n q 2     2 q Z n v 4 @         . = 5 w w w w w p p V B v b 6X6Xf f f f f f f f f f f f f f f f f f f f f f ",
"f f f f f f f 6X                            . X X .                             6Xf f f f f f f f f f f f f f f f f f f f f f f ",
"g g g g g g g 6X6X                          @ + + X                           6Xg g g g g g g a g f f g g g g g g g g g g g g g ",
"T T T T T T T T 6X6X6X6X6X6X6X6X6X6X6X6X6X6X6X6X6X6X6X6X6X6X6X6X6X6X6X6X6X6X6XT T T T T T T T T g f f g T T T T T T T T T T T T ",
"~ ~ Q ~ ~ ~ Q ~ ~ ~ ~ ~ ~ ~ ~ ~ ~ ~ ~ ~ ~ ~ / ~ ~ ~ ~ ~ ~ ~ ~ ~ ~ ~ ~ ~ ~ ~ ~ ~ ~ ~ ~ Q ~ ~ ~ T g f f g T Q ~ ~ Q ~ ~ ~ Q ~ Q ~ ",
"~ ~ ~ ~ ~ ~ ~ ~ ~ ~ ~ ~ ~ ~ ~ ~ ~ ~ ~ ~ ~ ^ ~ ~ ~ ~ ~ ~ ~ ~ ~ ~ ~ ~ ~ ~ ~ ~ ~ ~ ~ ~ ~ ~ ~ ~ ~ ~ T g g T ~ ~ ~ ~ ~ ~ ~ ~ ~ ~ ~ ~ ",
"~ ~ ~ ~ ~ ~ ~ ~ ~ ~ ~ ~ ~ ~ ~ ~ ~ ~ ~ ~ ~ ~ ~ ~ ~ ~ ~ ~ ~ ~ ~ ~ ~ ~ ~ ~ ~ ~ ~ ~ ~ ~ ~ ~ ~ ~ ~ ~ ~ T T ~ ~ ~ ~ ~ ~ ~ ~ ~ ~ ~ ~ ~ ",
"~ ~ ~ ~ ~ ~ ~ ~ ~ ~ ~ ~ ~ ~ ~ ~ ~ ~ ~ ~ ~ ~ ~ ~ ~ ~ ~ ~ ~ ~ ~ ~ ~ ~ ~ ~ ~ ~ ~ ~ ~ ~ ^ ~ ~ ~ ~ ~ ~ ~ ~ ~ ~ ~ ~ ~ ~ ~ ~ ~ ~ ~ ~ ~ ",
"~ ~ ~ ~ ~ ~ ^ ~ ~ ~ ~ ~ ^ ~ ~ ~ / ~ ~ ~ ~ ~ ~ ~ ~ ~ ~ ~ ~ ~ / ~ ~ ~ ~ ~ ~ ~ ~ ~ ~ ~ ~ ~ ~ ~ ~ ~ ~ ~ ~ ~ ~ ~ ~ ~ ~ ~ ~ ~ ~ ~ ~ ~ ",
"~ ~ ~ ~ ~ ~ ~ ~ ~ ~ ~ ~ ~ ~ ~ ~ ~ ~ ~ ~ ~ ~ ~ ~ ~ / ~ ~ ~ ~ ~ ~ ~ ~ ~ ~ ~ ~ ~ ~ ~ ~ ~ ~ ~ ~ ~ ~ ~ ~ ~ / ~ ~ ~ ~ ~ ~ ~ ~ ~ ~ / ~ ",
"~ ~ ~ ~ ~ ~ ~ ~ ~ ~ ~ ~ ~ ~ ~ ~ ~ ~ ~ ~ ~ ~ ~ ~ ~ ~ ~ ~ ~ ~ ~ ~ ~ ~ ~ ~ ~ ~ ~ ~ ~ ~ ~ ~ ~ ~ ~ ~ ~ ~ ~ ~ ~ ~ ~ ~ ~ ~ ~ ~ ~ ~ ~ ~ ",
"~ ~ ~ ~ ~ ~ ~ ~ ~ ~ ~ ~ ~ ~ ~ ~ ~ ~ ~ ~ ~ ~ ~ ~ ~ ~ ~ ~ ~ ~ ~ ~ ~ ~ ~ ~ ~ ~ ~ ~ ~ ~ ~ / ~ ~ ~ ~ ~ ~ ~ ~ ~ ~ ~ ~ ~ ~ ~ ~ ~ ~ ~ ~ ",
"/ ~ ~ ~ ~ ~ ~ ~ ~ ~ ~ ~ ~ ~ ~ ~ ~ ~ ~ ~ ~ ~ ~ ~ ~ ~ ~ ~ ~ ~ ~ ~ ~ ~ ~ ~ ~ ~ / ~ ~ ~ ~ ~ ~ ~ ~ ~ ~ ~ ~ ~ ~ ~ ~ / ~ ~ / ~ ~ ~ ~ ~ ",
"~ ~ ~ ~ ~ ~ ~ / ~ ~ ~ ~ ~ ~ ~ ~ ~ ~ ~ ~ ~ ~ ~ ^ ~ ~ ~ ~ ~ ~ ~ ~ ~ ^ ~ ~ ~ ~ ~ ~ ~ ~ ~ ~ ~ ~ ~ ~ ~ ~ ~ ~ ~ ~ ~ ~ ~ ~ ~ ~ ~ ~ ~ ~ ",
"~ ~ ~ ~ ~ ~ ~ ~ ~ ~ ~ ~ ~ ~ / ~ ~ ~ ~ ~ ~ ~ ~ ~ ~ ~ ~ ~ ~ ~ ~ ~ ~ ~ ~ ~ ~ ~ ~ ~ ~ ~ ~ ~ ~ ~ ~ ~ ~ ~ ~ ~ ~ ~ ~ ~ ~ ~ ~ ~ ~ ~ ~ ~ "
};
