/* XPM */
static char *_3f57b47664e49c18649a8bfc12c8881lnvX8jthOx7NLdeJ[] = {
/* columns rows colors chars-per-pixel */
"64 64 201 2 ",
"   c None",
".  c #010000",
"X  c #0C0200",
"o  c #020008",
"O  c #120400",
"+  c #1C0200",
"@  c #170801",
"#  c #1A0A01",
"$  c #120E0C",
"%  c #1B1205",
"&  c #00001E",
"*  c #00121F",
"=  c #1F1C14",
"-  c #230B01",
";  c #220000",
":  c #330E01",
">  c #3F0A00",
",  c #370500",
"<  c #2C1404",
"1  c #2E1708",
"2  c #2B1605",
"3  c #351C03",
"4  c #301708",
"5  c #331A09",
"6  c #391F0C",
"7  c #321705",
"8  c #3B210D",
"9  c #3A2406",
"0  c #3F2310",
"q  c #35291B",
"w  c #2A241B",
"e  c #04072C",
"r  c #010732",
"t  c #1B2128",
"y  c #382E21",
"u  c #323436",
"i  c #2B2C31",
"p  c #450700",
"a  c #531700",
"s  c #421C00",
"d  c #41250D",
"f  c #482900",
"g  c #562A04",
"h  c #422613",
"j  c #452A14",
"k  c #4A2D16",
"l  c #462C1C",
"z  c #582B11",
"x  c #4E3119",
"c  c #4E3519",
"v  c #533315",
"b  c #54361C",
"n  c #57381F",
"m  c #59391F",
"M  c #5A3817",
"N  c #5D3700",
"B  c #623E06",
"V  c #442A26",
"C  c #493324",
"Z  c #513421",
"A  c #5C3D27",
"S  c #573A28",
"D  c #4D393D",
"F  c #613F29",
"G  c #414011",
"H  c #4E4436",
"J  c #5B4837",
"K  c #594C32",
"L  c #63422C",
"P  c #68462D",
"I  c #664224",
"U  c #724C33",
"Y  c #775335",
"T  c #7B543A",
"R  c #785136",
"E  c #6E4E35",
"W  c #010853",
"Q  c #1C1748",
"!  c #001C65",
"~  c #002870",
"^  c #133779",
"/  c #022C76",
"(  c #2E3F7C",
")  c #443651",
"_  c #3F4755",
"`  c #3E457C",
"'  c #42434C",
"]  c #5D5243",
"[  c #4C4857",
"{  c #52535C",
"}  c #5C5B5A",
"|  c #545058",
" . c #655848",
".. c #655554",
"X. c #776753",
"o. c #5D5E65",
"O. c #595E74",
"+. c #5D616A",
"@. c #62646B",
"#. c #6B6968",
"$. c #676974",
"%. c #6D717A",
"&. c #72757D",
"*. c #75656D",
"=. c #80220F",
"-. c #802A15",
";. c #802711",
":. c #803B20",
">. c #835639",
",. c #845C43",
"<. c #8A5F44",
"1. c #96694E",
"2. c #97684B",
"3. c #8C785D",
"4. c #916C53",
"5. c #A27355",
"6. c #AC7A5B",
"7. c #A7785B",
"8. c #B37E5E",
"9. c #A16D4E",
"0. c #8A7B65",
"q. c #917E67",
"w. c #A37767",
"e. c #B27F60",
"r. c #93804D",
"t. c #93836C",
"y. c #9D886E",
"u. c #9A8A72",
"i. c #AA8569",
"p. c #B58261",
"a. c #B88A68",
"s. c #AA947A",
"d. c #A8967B",
"f. c #B89477",
"g. c #A38E76",
"h. c #C19777",
"j. c #004697",
"k. c #1E4D9A",
"l. c #0653A7",
"z. c #255AA7",
"x. c #0A60B8",
"c. c #2463B4",
"v. c #2366B9",
"b. c #2867B9",
"n. c #455388",
"m. c #495A92",
"M. c #536799",
"N. c #717683",
"B. c #7D7883",
"V. c #6D7082",
"C. c #707AA9",
"Z. c #156AC4",
"A. c #226BC2",
"S. c #867E90",
"D. c #7D818D",
"F. c #7A8181",
"G. c #7A8398",
"H. c #7B87AB",
"J. c #8C8B8E",
"K. c #818182",
"L. c #858995",
"P. c #8B8B94",
"I. c #848597",
"U. c #8F929A",
"Y. c #91949F",
"T. c #AD8080",
"R. c #B99E82",
"E. c #B6A589",
"W. c #BEA98C",
"Q. c #B8A285",
"!. c #808BA5",
"~. c #9195A3",
"^. c #959AAC",
"/. c #9A9EAB",
"(. c #8292BB",
"). c #9EA1AD",
"_. c #9EA4B2",
"`. c #A2A6B3",
"'. c #A6AAB6",
"]. c #AAAEBA",
"[. c #A7ACB8",
"{. c #ADB1BD",
"}. c #B0B4BE",
"|. c #C2AC8E",
" X c #C3AE90",
".X c #C6B294",
"XX c #CAB496",
"oX c #CDB899",
"OX c #D0BA9B",
"+X c #FFBB9C",
"@X c #B2B5C1",
"#X c #B7BAC4",
"$X c #BDC0CB",
"%X c #C4C7D1",
"&X c #D7D7D8",
"*X c #EAEAEB",
"=X c #E4E5E5",
"-X c #EEEFF0",
";X c #F1F1F3",
":X c #FFFFFF",
">X c #F7F8FA",
/* pixels */
"Y Y Y Y Y Y Y Y Y Y Y Y Y Y Y Y Y Y Y Y Y Y Y Y Y Y Y Y Y Y Y Y Y Y Y Y >.Y Y Y Y Y Y T Y Y U P I c C A P Y Y Y Y Y Y Y Y Y Y Y ",
"Y Y Y Y Y Y Y Y Y Y Y Y Y Y Y Y Y Y Y Y Y Y T Y Y Y T Y Y Y T Y Y Y Y Y Y Y Y Y Y Y Y Y Y Y Y P L c Z A P E Y Y Y Y Y Y Y Y Y Y ",
"Y Y Y Y Y Y Y Y Y Y Y Y Y Y Y Y Y Y T Y Y Y Y Y Y Y Y Y Y Y Y Y Y Y Y Y Y Y Y Y Y Y Y Y Y Y Y P A Z Z A P Y Y Y Y Y Y Y Y Y Y Y ",
"Y Y Y Y Y Y Y Y Y Y Y Y Y Y Y T Y Y Y Y Y Y Y Y Y Y Y Y Y Y Y Y Y Y Y Y Y Y Y Y Y Y Y Y Y Y Y P A Z Z A L Y Y Y Y Y Y Y Y Y Y Y ",
"Y Y Y Y Y Y Y Y Y Y Y Y Y Y T Y Y Y Y Y Y Y Y Y Y T Y Y Y Y Y Y Y Y Y Y Y Y Y Y Y Y Y Y Y Y E P A Z Z A P Y Y Y Y Y Y Y Y T Y Y ",
"Y Y Y Y Y Y Y Y Y Y Y Y Y Y Y Y Y Y Y Y Y Y Y Y Y Y Y Y Y Y Y Y Y Y Y Y Y Y Y Y Y Y Y Y Y Y Y P A Z Z A P E Y Y Y Y Y Y Y Y Y Y ",
"Y Y Y U Y Y U Y Y Y Y U Y Y Y Y Y Y Y Y Y Y Y Y Y Y Y Y Y Y Y Y Y Y Y Y T Y Y Y Y Y Y Y Y Y Y P A Z Z A P Y U Y Y Y U Y U Y Y Y ",
"P P P P P P P P P I P P P P Y Y Y Y Y Y Y Y Y P P Y Y Y Y Y Y Y T Y Y T Y Y Y Y Y Y Y Y Y Y Y P A Z Z A P P P P P I P P P P P P ",
"A A A A L A S L L L A A A A P Y Y Y Y Y Y Y P A A P U Y Y Y Y Y Y Y Y Y Y Y Y Y Y Y Y Y Y Y Y P A Z Z A A A A A L S A A A A A A ",
"Z Z Z Z C Z c Z c l Z Z Z Z L L Y Y Y Y Y P A Z c A P Y Y Y Y Y Y Y Y Y Y   . . .   Y   . . . . . .   Z Z Z Z Z Z c Z Z Z Z Z Z ",
"Z Z Z Z c Z l c Z c Z Z Z Z S P Y Y Y Y E P A c Z A P Y Y T Y Y Y Y Y Y     o o .     X . . X X X . . Z Z Z b Z Z c Z Z Z Z Z Z ",
"A A A A A A L L L S A A A A L Y Y Y Y Y Y Y P A A P Y Y Y Y Y Y Y   . $ . X o > k 1 . @ 1 0 j x 0 @ . A A A A A L S A A A A A A ",
"P P P P P P P I P P P P P P Y Y Y Y Y Y Y Y U P P Y Y Y Y Y Y Y     O @ @ X . B m 0 X 1 j v m m x # . P P P P P P P P L P P P P ",
"Y U E Y Y Y U Y U U Y Y Y E Y Y Y Y Y Y Y Y Y Y Y Y Y Y Y Y Y   . % z M j 0 1 h n k 1 j v A b 8 O . . Y Y Y E U Y E Y Y Y E Y Y ",
"Y Y Y Y Y Y Y Y Y Y Y Y Y Y Y Y Y Y Y Y Y Y Y Y Y Y Y Y Y Y     X 9 n I A v j x n x h c S A x 2 . X X   Y Y Y Y Y Y Y Y Y Y Y Y ",
"Y Y Y Y Y Y Y Y Y Y Y Y Y Y Y Y T Y Y Y Y Y Y Y Y Y Y Y Y   . O G n n n b b b b b b b b b n b x j 8 7 .   Y Y Y Y Y Y Y Y Y Y Y ",
"Y Y Y Y Y Y Y Y Y Y Y Y Y Y Y Y Y Y Y Y Y Y Y Y Y Y Y Y     # 9 b :.n n M S S n n n n n n n n m n B h , .   Y R Y Y Y Y Y Y Y Y ",
"Y Y Y Y Y Y Y Y Y Y Y Y Y Y Y Y Y Y Y Y Y Y Y Y T Y Y Y . # v M n n b b n n M n n b n b b n n S n b l 0 : .   Y Y Y Y Y Y Y Y Y ",
"Y Y Y Y Y Y Y Y Y Y T Y Y Y Y T Y Y Y >.Y Y Y Y Y Y Y Y . # c F S b b x k k x b b n b n b v v b m m b ;.4 X . Y Y Y Y Y Y Y Y Y ",
"T Y Y Y Y Y Y Y Y Y Y Y Y Y Y Y Y Y Y Y Y Y Y Y Y Y Y   . @ k A n M v d 7 7 h x b n n S b j h b m S Z h 2 . . Y T Y Y Y Y Y Y Y ",
"Y Y Y T Y Y Y Y Y Y Y Y Y Y Y Y Y Y Y Y Y Y Y Y Y Y     O 4 x b d A Y >.T F 4 d n m b S b h 8 k v x k h < o . Y Y Y T Y T Y Y Y ",
"Y Y Y Y T Y Y Y Y T Y Y Y Y Y Y Y Y Y Y Y Y Y Y Y Y . X < h b v ; P 5.e.6.<.6 5 n m M m b j 6 h h h 8 h 1 X . Y Y Y Y Y Y Y Y Y ",
"Y Y Y Y Y Y Y Y Y Y Y Y Y Y Y Y Y Y Y Y Y Y Y Y Y Y . X 5 h h A R 1.6.8.8.9.<.P d j b A b 8 < 5 0 h k h 1 . . Y Y Y Y Y Y Y Y Y ",
"Y Y Y Y Y T Y Y Y Y Y Y Y Y Y Y Y Y Y Y Y Y >.Y Y Y . X 4 0 - L 5.e.8.6.8.8.8.>.6 d n m b h 6 6 h b b h < . . Y Y Y Y Y Y Y T Y ",
"Y Y Y Y Y Y Y Y Y Y Y Y Y Y Y Y Y Y T Y Y Y Y Y Y Y . . 6 8 @ h U 4.f.R.f.i.,.X.>.P b 3 x T ,.F j m b j 2 . . Y Y Y Y Y Y Y Y Y ",
"Y Y Y Y Y Y Y Y Y Y Y Y Y Y Y Y Y Y Y T Y Y Y Y Y Y . X 6 8 @ . . X.E.oXXXu.@ R 8.2.v : S 5.6.R k b x h 2 . . Y Y Y Y Y Y Y Y Y ",
"Y Y Y Y Y E E Y E Y Y Y Y E U Y Y Y Y Y Y U E Y Y Y     % - @ . . ] E.oXXXt.. 4.Q.3.: P 1.6.7.R j k h h 5 X . Y Y Y Y Y Y Y Y Y ",
"P P P P P P P L P P P P P P P P I P P P P P P P P P P   . . . . X X.E.XX.Xy.u 0.|.q.k 2.e.p.5.U d d 6 0 2 . . Y Y Y Y T Y Y P P ",
"I L A A A A A L A A A A A A A A I K A A A A A A A A A A     . H t.R. X.X.XE.d.s.a.w.2.5.p.p.7.U < =.6 < @     Y Y Y Y Y Y P L S ",
"c l Z Z Z Z Z Z c b Z Z :X:X:X:X:X>X:X:X:XZ Z Z Z Z Z Z Z   . J R..X|.W.W.|..Xf.6.8.p.6.6.6.1.F - 6 2 . . Y Y Y Y Y Y Y P I c c ",
"Z c Z Z Z Z Z Z Z Z Z :X:X:X:X:X:X  b Z Z Z Z Z Z Z Z Z Z   . J i.f.f.a.a.a.a.a.e.e.p.p.6.,.C -.6 - X     Y Y Y Y Y Y Y P A Z Z ",
"L S A A A A A A :X:X:X:X:X:X:X:X:XA A A A A A A A A A A A   . l <.9.2.5.w.w.w.7.9.5.5.7.1.l . # 9 X .   Y Y Y Y                 ",
"P P P P P P P :X:X:X:X:X:X:X:X  P P P L P P P P P P P P P   . . l z a  .B.S.S.*.A I U P z . . . %       Y Y Y Y   . . . . . . o ",
"U Y U Y :X:X:X:X:X:X:X:X:X:X:XY U E Y Y Y Y Y Y Y U Y       L S . * [ &.H.!.G.O.< : x E X.X.] = .               [ +.+.o.+.{ i . ",
"Y Y Y :X:X:X:X:X:X:X:X:X:X  Y Y Y Y Y Y Y Y Y Y Y Y Y   . V 5.1.g | Y.'.`.^.H.$.v p L y.W.|.d.H .         . . . N.)._.)._.Y.{ . ",
"Y Y :X:X:X:X:X:X:X:X:X:X:XY Y Y Y Y Y Y Y Y Y Y Y Y Y   . x 6.g.g o.`.@X].~.V.| n > L s.XXOXW.y. .      ' @.$.$.~.:X:X{.:X'.@.. ",
"Y :X:X:X:X:X:X:X:X:X:X:X:XY Y Y Y Y Y Y Y Y Y Y Y Y Y   . C 5.6.N o.^.@X].I.D s Z , S g.XX.XW..Xd.J . . @.:X'.).'.'.'.'.:X`.o.. ",
"Y :X:X:X:X:X:X:X:X:X:X:X:XY Y Y Y Y Y Y Y Y Y Y Y Y Y   . 5 T >.p } /.@X{.J.a p b + y g.XXXXXX+Xf.H . +.U.{.:X{.[.'.:X'./.C.{ . ",
"Y :X:X:X:X:X:X:X:X:X:X:X:XY Y Y Y Y Y Y Y Y Y Y Y Y Y   . . X + ; #.).@X}.J.A f b X w g.XX.X.XXXd.9 _ ).].'.[.'.'.'.:X`.%..   Y ",
"Y :X:X:X:X:X:X:X:X:X:X:X:XY Y Y Y Y Y Y Y Y T Y Y Y Y   . & W ~ ^ M.H.(.(.C.m.) M : w X.t.0.3.3.t.&.U.'.{.'.'.'.:X[./.&.'   Y Y ",
"Y :X:X:X:X:X:X:X:X:X:X:X:X:XY Y Y Y Y Y Y Y Y Y Y Y Y   . r ^ k.z.b.c.c.v.v.v.n.b f 8 @ . . . . { /.{.'.'.'.'.'.].`.&..   Y Y Y ",
"Y Y :X:X:X:X:X:X:X:X:X:X:X:X:XY Y Y Y Y Y Y Y Y       O 9 C ) ` z.l.j.j.x.Z.v.m.M > . . . +.D.N.L.`.{.'.[.].:X[./.&.'   Y Y Y Y ",
"Y Y Y :X:X:X:X:X:X:X:X:X:X:X:X:X:XY Y Y Y Y Y     e o X l M N D n./ W ^ z.v.c.n.v f t . ' ~.@X].[.[.'.'.'.`.'.`.&..   Y Y Y Y Y ",
"Y Y Y :X:X:X:X:X:X:X:X:X:X:X:X:X:XY Y Y Y T       . . . , I I b ) Q . e ! ~ ! r X @.P.L.P.^._._.'.[.:X:X/.&.%.%.{   Y Y Y Y Y Y ",
"Y Y Y :X:X:X:X:X:X:X:X:X:X:X:X:X:X:X:X:X:X    B.F.t.$.{ K v v z p 3 u u q q y % u L.].].].@X@X#X}.`.).`.G.. . .   Y Y Y Y Y Y Y ",
"Y Y Y Y :X:X:X:X:X:X:X:X:X:X:X:X:X:X:X:X:X:X;X*X*X*X=X&XJ.. . . . o N.L.D.D.D.D.G.~._.^.[.:X;X:X*XU._ $.{       Y Y Y Y Y T Y Y ",
"Y E U Y Y :X:X:X:X:X:X:X:X:X:X:X:X:X:X:X:X:X:X:X:X:X:X:X&XF.  J.#.U.#X%X$X$X$X$X$X#X#X@X%X>X:X:X*X#.. .   Y U Y Y Y U U E Y Y Y ",
"P P P P P P :X:X:X:X:X:X:X:X:X:X:X:X:X:X:X:X:X:X:X:X:X:X>X;X;X*X=X*X*X;X;X;X;X;X;X:X;X:X:X:X:XP P         P P P P P P P P P P P ",
"A A A A A A A A A :X:X:X:X:X:X:X:X:X:X:X:X:X:X:X:X:X:X:X:X:X:X:X:X:X:X:X:X:X:X:X:X:X:X:XA A A S A A A A A A A A A A A A A A A A ",
"b Z Z Z Z Z Z Z Z Z :X:X:X:X:X:X:X:X:X:X:X:X:X:X:X:X:X:X:X:X:X:X:X:X:X:X:X:X:X:X:X:X:XZ Z Z Z c b Z Z Z Z Z Z Z Z Z Z Z Z Z Z Z ",
"Z Z Z Z Z Z Z c Z Z Z A P Y Y Y Y :X:X:X:X:X:X:X:X:X:X:X:X:X:X:X:X:X:X:X:X:XY P A Z c Z Z Z c c Z Z Z Z Z Z Z c Z Z Z Z Z Z Z Z ",
"A A A A A A A I A A A P E Y Y Y Y :X:X:X:X:X:X:X:X:X:X:X:X:X:X:X:X:X:X:X:XY Y Y P A A S L A K I A A A A A A A A A A A A A A A A ",
"P P P P P P P P P P P Y Y Y Y Y Y Y Y Y Y Y Y Y Y Y Y Y Y Y Y Y Y Y Y Y Y Y Y Y Y P P P E I E I P P P P P P P P P P P P P P P P ",
"E Y U Y Y Y U E U Y Y Y Y Y Y Y Y Y Y Y Y Y Y Y Y Y Y Y Y Y Y Y Y Y Y Y Y Y Y Y Y U E Y Y Y Y Y E Y U Y Y Y Y E Y E Y Y Y U E Y ",
"Y Y Y Y Y Y Y Y Y Y Y Y Y Y Y Y Y Y Y Y Y Y Y >.Y Y Y Y Y Y Y Y Y Y Y Y Y Y Y Y Y Y Y Y Y Y Y Y Y Y Y Y Y Y Y Y Y Y Y Y Y Y Y Y ",
"Y Y Y Y Y Y Y Y Y Y Y Y Y Y Y Y Y Y Y Y Y Y Y Y Y Y Y Y Y Y Y Y Y Y Y Y Y Y Y Y Y Y Y Y Y Y Y Y Y Y Y Y Y Y Y Y Y Y T Y Y Y Y Y ",
"Y Y Y Y Y Y Y Y Y Y Y Y Y Y Y Y Y Y Y Y Y Y Y Y Y Y Y Y Y Y Y Y Y Y Y Y Y T Y Y Y Y Y Y Y Y Y Y Y Y Y Y >.Y Y Y Y Y Y Y Y Y Y Y ",
"Y Y Y Y Y Y Y >.Y Y Y Y Y Y Y Y Y Y Y Y Y Y Y Y Y Y Y Y >.Y Y Y Y Y Y Y Y Y Y Y Y Y Y Y Y Y Y Y Y Y Y Y Y Y Y Y Y Y Y Y Y Y Y Y ",
"Y Y Y Y Y Y Y Y Y Y Y Y Y Y Y Y Y Y Y Y Y T Y Y Y Y Y Y Y Y Y Y Y Y T Y Y Y Y Y Y Y Y T Y Y >.Y Y Y Y Y Y Y Y Y Y Y Y Y Y Y Y Y ",
"Y Y Y Y Y Y Y Y Y Y Y Y Y Y Y Y Y Y Y Y Y Y Y Y Y Y Y Y Y Y Y Y Y Y Y Y Y Y Y Y Y Y Y Y Y Y Y Y Y Y Y Y Y Y Y Y Y Y Y Y Y Y Y Y ",
"T Y Y Y Y Y Y Y Y Y Y Y Y Y Y Y Y Y Y Y Y Y Y Y Y Y Y Y Y Y Y Y Y Y Y Y Y Y Y Y Y Y Y Y Y Y Y Y Y Y Y Y Y Y Y Y Y Y Y Y Y Y Y Y ",
"Y Y T Y Y Y Y Y Y Y Y Y T Y Y Y >.Y Y Y Y Y Y T Y Y Y T Y Y Y Y >.Y Y Y Y Y Y Y Y Y Y Y Y Y Y Y Y Y Y Y Y Y Y Y Y Y Y Y Y Y T Y ",
"T Y Y Y Y Y Y Y T Y Y Y Y Y Y Y Y Y Y Y Y Y Y Y Y Y Y Y Y Y Y Y Y Y Y Y Y Y Y Y Y Y Y Y Y T Y Y Y Y Y >.Y T Y Y Y Y Y Y Y Y Y Y ",
"Y Y Y Y Y Y Y Y Y Y Y Y Y Y T Y Y Y Y Y Y Y T Y Y Y Y Y Y Y Y Y Y Y Y Y Y Y Y T Y Y Y T Y Y Y Y Y Y Y Y Y Y Y Y Y Y T Y Y Y Y Y "
};
