/* XPM */
static char *result[] = {
/* columns rows colors chars-per-pixel */
"64 64 71 1 ",
"  c #4B3222",
". c #4B3223",
"X c #4C3323",
"o c #4D3323",
"O c #4D3423",
"+ c #4D3424",
"@ c #4E3424",
"# c #4E3524",
"$ c #4F3524",
"% c #4F3525",
"& c #503625",
"* c #513725",
"= c #513726",
"- c #523726",
"; c #523826",
": c #533826",
"> c #533927",
", c #543927",
"< c #553A28",
"1 c #563A28",
"2 c #563B28",
"3 c #583D29",
"4 c #593D29",
"5 c #593D2A",
"6 c #5A3E2A",
"7 c #5B3E2A",
"8 c #5B3F2A",
"9 c #5C3F2B",
"0 c #5C402B",
"q c #5D402B",
"w c #5D402C",
"e c #5E412C",
"r c #5F422C",
"t c #5F422D",
"y c #60422D",
"u c #60432D",
"i c #61442E",
"p c #654730",
"a c #664730",
"s c #664830",
"d c #674831",
"f c #684931",
"g c #684932",
"h c #694932",
"j c #694A32",
"k c #6A4A32",
"l c #6A4B32",
"z c #6A4B33",
"x c #6B4B33",
"c c #6D4D34",
"v c #6E4D34",
"b c #6F4E35",
"n c #715036",
"m c #725036",
"M c #725136",
"N c #725137",
"B c #735137",
"V c #735237",
"C c #745237",
"Z c #745238",
"A c #755338",
"S c #765338",
"D c #765438",
"F c #765439",
"G c #775439",
"H c #775539",
"J c #785539",
"K c #78553A",
"L c #78563A",
"P c #79563A",
"I c #7A573B",
/* pixels */
"AAAAAAAAAAAAAAAAAAAAAAAAAAAAAAAAAAAAAAAAAAAFHGMf9--9fMGHFAAAAAAA",
"AAAAAAAAAAAAAAAAAAAAAAAAAAAAAAAAAAAAAAAAAAAFHGMf9--9fMGHFAAAAAAA",
"AAAAAAAAAAAAAAAAAAAAAAAAAAAAAAAAAAAAAAAAAAAFHGMg9--9fMGHFAAAAAAA",
"FFFFFFFFFFFFFFFDAAAADFFFFFFDAAAAAAAAAAAAAAAGKJVj0--0jBKPHFFFFFFF",
"HHHHHHHHHHHHJJHFSAASFHHJJJHGDAAAAAAAAAAAAAAHPPZlw--qlZPIPJHHHHHH",
"GGGGGGGGGGGGGGGFAAAAFGGHHGGFSAAAAAAAAAAAAAAGPLCkq--qkCPPJGGGGGGG",
"MMMMMMMMMMMMmMNVZAAZVNMmmMNBCAAAAAAAAAAAAAAAACba6==7sbCZBMMMMMMM",
"ffffffffffffdfkvmAAmvkfddfkcnCDDAAAAAAAADDCmbxpe1%%2takljgffffff",
"99999999999756rdbZZbdr6336racBFGDAAAAAADGFBcdt4>%Xo*26qw09999999",
"----------=&@$2icCCci2$XX$2ulNGHFAAAAAAFHGNlu2#XXO+#&=;;--------",
"----------=&@$2icCCci2$XX$2ulNGHFAAAAAAFHGNly1%%-,,,:;==--------",
"99999999999756rdbZZbdr6336racBFGDAAAAAADGFBcpe68wttew09999999999",
"ffffffffffffdfkvmAAmvkfddfkcnCDDAAAAAAAADDCnckffjkkjjhffffffffff",
"MMMMMMMMMMMMmMNVZAAZVNMmmMNBCAAAAAAAAAAAAAACBNMmMMMMMMMMMMMMMMMM",
"GGGGGGGGGGGGGGGFAAAAFGGGGGGFSAAAAAAAAAAAAAASFGGGGGGGGGGGGGGGGGGG",
"HHHHHHHHHHHHJJHFSAASFHJJJJHGDAAAAAAAAAAAAAADGHJJHHHHHHHHHHHHHHHH",
"FFFFFFFFFFFFFFFDAAAADFFFFFFDAAAAAAAAAAAAAAAADFFFFFFFFFFFFFFFFFFF",
"AAAAAAAAAAAAAAAAAAAAAAAAAAAAAAAAAAAAAAAAAAAAAAAAAAAAAAAAAAAAAAAA",
"AAAAAAAAAAAAAAAAAAAAAAAAAAAAAAAAAAAAAAAAAAAAAAAAAAAAAAAAAAAAAAAA",
"AAAAAAAAAAAAAAAAAAAADFFDAAAAAAAAAAAAAAAAAAAAAAAAAAAAAAAAAAAAAAAA",
"AAAAAAAAAAAAAAAAAAADGHHGDAAAAAAAAAAAAAAAAAAAAAAAAAAAAAAAAAAAAAAA",
"AAAAAAAAAAAAAAAAAAADFGGFDAAAAAAAAAAAAAAAAAAAAAAAAAAAAAAAAAAAAAAA",
"AAAAAAAAAAAAAAAAAAACBNNBCAAAAAAAAAAAAAAAAAAAAAAAAAAAAAAAAAAAAAAA",
"FFFFFFFFFFFFFFFGHGAncllcnAGHGFFDAAAADFFFFFFDAAAAAAAAAAAAAAAADFFF",
"HHHHHHHHHHHHHHHKPPAbsuusbAPPLJHFSAASFHHJJJHGDAAAAAAAAAAAAAADGHHJ",
"GGGGGGGGGGGGGGGJPLCxt22txCLPKHGFAAAAFGGHHGGFSAAAAAAAAAAAAAASFGGG",
"MMMMMMMMMMMMMMMVZCbp4$$5pbCZBMNVZAAZVNMmmMNBCAAAAAAAAAAAAAACBNMm",
"ffhjjkkjjhffffgjzkae,..,eakkffkvmAAmvkfddfkcnCDDAAAAAAAADDCnckfd",
"990wettew099999qww6<%  %<6q066rdbZZbdr6336racBFGDAAAAAADGFBcar65",
"==;:,,,,:;==----;;=&#++#&=-&@$2icCCci2$XX$2ulNGHFAAAAAAFHGNlu2$@",
";;=&#++#&=;;----==;:,,,,:;=&@$2icCCci2$XX$2ulNGHFAAAAAAFHGNlu2$@",
"ww6<%  %<6ww0999990wettew09656rdbZZbdr6336racBFGDAAAAAADGFBcar65",
"zkae,..,eakljgffffhjjkkjjhffdfkvmAAmvkfddfkcnCDDAAAAAAAADDCnckfd",
"ZCbp4$$5pbCZVMMMMMMMMMMMMMMMmMNVZAAZVNMmmMNBCAAAAAAAAAAAAAACBNMm",
"PLCxt22txCLPJGGGGGGGGGGGGGGGGGGFAAAAFGGGGGGFSAAAAAAAAAAAAAASFGGG",
"PPAbsuusbAPPKHHHHHHHHHHHHHHHJJHFSAASFHJJJJHGDAAAAAAAAAAAAAADGHJJ",
"HGAncllcnAGHGFFFFFFFFFFFFFFFFFFDAAAADFFFFFFDAAAAAAAAAAAAAAAADFFF",
"AAACBNNBCAAAAAAAAAAAAAAAAAAAAAAAAAAAAAAAAAAAAAAAAAAAAAAAAAAAAAAA",
"AAASFGGFDAAAAAAAAAAAAAAAAAAAAAAAAAAAAAAAAAAAAAAAAAAAAAAAAAAAAAAA",
"AAADGHHGDAAAAAAAAAAAAAAAAAAAAAAAAAAAAAAAAAAAAAAAAAAAAAAAAAAAAAAA",
"AAAADFFDAAAAAAAAAAAAAAAAAAAAAAAAAAAAAAAAAAAAAAAAAAAAAAAAAAAAAAAA",
"AAAAAAAAAAAAAAAAAAAAAAAAAAAAAAAAAAAAAAAAAAAAAAAAAAAAAAAAAAAAAAAA",
"AAAAAAAAAAAAAAAAAAAAAAAAAAAAAAAAAAAAAAAAAAAAAAAAAAAAAAAAAAAAAAAA",
"FFFFFFFFFFFDAAAAAAAAAAAADFFFFFFFFFFFFFFFFFFFFFFFFFFFFFFFFFFFFFFF",
"HHHHHHHHJJHGDAAAAAAAAAADGHHJHHHHHHHHHHHHHHHHHHHHHHHHHHHHHHHHHHHH",
"GGGGGGGGGGGFSAAAAAAAAAASFGGGGGGGGGGGGGGGGGGGGGGGGGGGGGGGGGGGGGGG",
"MMMMMMMMmMNBCAAAAAAAAAACBNMmMMMMMMMMMMMMMMMMMMMMMMMMMMMMMMMMMMMM",
"ffffffffdfkcnCDDAAAADDCnckfdffffffffffffffffffhjjkkjjhffffffffff",
"9999999756racBFGDAADGFBcar657999999999999999990wettew09999999999",
"------=&@$2ulNGHFAAFHGNlu2$@&=--------------==;:,,,,:;==--------",
"------=&@$2ulNGHFAAFHGNlu2$@&=--------------;;=&#++#&=;;--------",
"9999999756racBFGDAADGFBcar65799999999999999qww6<%  %<6ww09999999",
"ffffffffdfkcnCDDAAAADDCnckfdffffffffffffffgjzkae,..,eakljgffffff",
"MMMMMMMMmMNBCAAAAAAAAAACBNMmMMMMMMMMMMMMMMMVZCbp4$$5pbCZVMMMMMMM",
"GGGGGGGGGGGFSAAAAAAAAAASFGGGGGGGGGGGGGGGGGGJPLCxt22txCLPJGGGGGGG",
"HHHHHHHHJJHGDAAAAAAAAAADGHJJHHHHHHHHHHHHHHHKPPAbsuusbAPPKHHHHHHH",
"FFFFFFFFFFFDAAAAAAAAAAAADFFFFFFFFFFFFFFFFFFGHGAncllcnAGHGFFFFFFF",
"AAAAAAAAAAAAAAAAAAAAAAAAAAAAAAAAAAAAAAAAAAAAAAACBNNBCAAAAAAAAAAA",
"AAAAAAAAAAAAAAAAAAAAAAAAAAAAAAAAAAAAAAAAAAAAAAASFGGFDAAAAAAAAAAA",
"AAAAAAAAAAAAAAAAAAAAAAAAAAAAAAAAAAAAAAAAAAAAAAADGHHGDAAAAAAAAAAA",
"AAAAAAAAAAAAAAAAAAAAAAAAAAAAAAAAAAAAAAAAAAAAAAAADFFDAAAAAAAAAAAA",
"AAAAAAAAAAAAAAAAAAAAAAAAAAAAAAAAAAAAAAAAAAAAAAAAAAAAAAAAAAAAAAAA",
"AAAAAAAAAAAAAAAAAAAAAAAAAAAAAAAAAAAAAAAAAAAAAAAAAAAAAAAAAAAAAAAA",
"AAAAAAAAAAAAAAAAAAAAAAAAAAAAAAAAAAAAAAAAAAAAAAAAAAAAAAAAAAAAAAAA"
};
